<?xml version="1.0" encoding="utf-8"?>
<!-- Generator: Adobe Illustrator 28.0.0, SVG Export Plug-In . SVG Version: 6.00 Build 0)  -->
<svg version="1.1" id="Layer_1" xmlns="http://www.w3.org/2000/svg" xmlns:xlink="http://www.w3.org/1999/xlink" x="0px" y="0px"
	 viewBox="0 0 128 128" style="enable-background:new 0 0 128 128;" xml:space="preserve">
<style type="text/css">
	.st0{fill:#333333;}
	.st1{fill:#F83843;}
</style>
<rect x="26.9" y="114.6" class="st0" width="72.4" height="13.1"/>
<path class="st1" d="M81.8,36.7c1.8,3.3,2.5,7.3,2.5,12.4s-0.7,9.1-2.5,12.4c-1.8,3.3-4,5.1-6.5,5.1c-2.5,0-4.7-1.5-6.5-5.1
	c-1.8-3.3-2.5-7.6-2.5-12.7c0-4.7,0.7-8.7,2.5-12c1.8-3.3,4-5.1,6.5-5.1C78.2,31.6,80.4,33.4,81.8,36.7 M110.2,48.4
	c0,27.3-19.6,46.9-46.2,46.9s-46.2-20-46.2-46.9c0-27.3,19.6-48,46.2-48S110.2,21.1,110.2,48.4 M51.3,26.2H40.7l-3.6,6.5h7.6v38.9
	h6.5V26.2z M91.3,49.1c0-7.3-1.8-13.5-5.1-17.8c-2.9-4-6.5-5.8-10.9-5.8s-7.6,1.8-10.9,5.8c-3.3,4.4-5.1,10.2-5.1,17.5
	c0,7.6,1.8,13.5,5.1,17.8c2.9,4,6.5,5.8,10.9,5.8s7.6-1.8,10.5-5.8C89.5,62.2,91.3,56.4,91.3,49.1"/>
</svg>
