<?xml version="1.0" encoding="utf-8"?>
<!-- Generator: Adobe Illustrator 28.0.0, SVG Export Plug-In . SVG Version: 6.00 Build 0)  -->
<svg version="1.1" id="Layer_1" xmlns="http://www.w3.org/2000/svg" xmlns:xlink="http://www.w3.org/1999/xlink" x="0px" y="0px"
	 viewBox="0 0 237.1 499.2" style="enable-background:new 0 0 237.1 499.2;" xml:space="preserve">
<style type="text/css">
	.st0{fill:#EA2B8D;}
	.st1{fill:#ED8AC0;}
	.st2{fill:#E9B0CF;}
	.st3{fill:#473953;}
</style>
<path class="st0" d="M85.9,48.6C89.6,30,101.1,13.1,117,3c3.5-2.2,7.9-4.1,11.6-2.3c2.8,1.4,4.3,4.6,4.5,7.7
	c0.2,3.1-0.6,6.2-1.5,9.2c3.8-4.5,7.8-9.2,13-12c5.2-2.8,12-3.3,16.7,0.4c4.6,3.7,5.3,12,0.4,15.3c5.9-5.8,15.5-7.9,22.6-3.7
	c7.1,4.2,9.8,15,4.6,21.4c5.1-0.7,10.3-0.9,15.2,0.7c4.9,1.6,9.3,5.3,10.6,10.3c1.4,5-1.2,11.1-6.1,12.6c5.6,2,10.3,3.5,14.8,7.3
	c4.5,3.8,7.8,9.8,6.7,15.7c-1,5.9-7.4,10.7-13,8.7c5.6,3.9,11.2,7.9,15.2,13.4c4,5.5,6.1,13,3.6,19.4c-2.5,6.4-10.4,10.6-16.4,7.5
	c2.7,4.3,5.4,8.7,6.8,13.6c1.4,4.9,1.3,10.5-1.4,14.8c-2.7,4.3-8.4,6.8-13.1,4.8c4.9,2.8,6.7,10.2,3.5,14.9
	c-3.2,4.8-10.6,5.9-15,2.3c4,2.4,5.4,5.2,8.4,8.8c3,3.6,4.7,8.6,3.2,13c-1.3,3.8-4.7,6.5-8.5,7.9c-3.7,1.4-7.8,1.6-11.7,1.8
	c6.6,0.9,11.7,8.1,10.5,14.8c-1.2,6.7-8.5,11.5-15,10c6.7,1.5,13.6,3.5,19,7.8c5.4,4.3,9.1,11.5,7.6,18.2
	c-1.5,6.8-9.5,11.9-15.7,8.8c4.8,2.1,9.7,4.9,12,9.7c2.3,4.8,0.4,11.8-4.7,13.1c8,1.8,15.1,7.4,18.9,14.8c1.9,3.8,2.9,8.3,1.6,12.4
	c-1.4,4.1-8.3,7.8-12.4,6.8c3.6,1.9,7.4,3.8,10.2,6.8c2.9,3,4.7,7.2,3.9,11.3c-0.9,4.1-5.2,7.4-9.1,6.2c2.3,4.2,5.9,7.5,8.8,11.3
	c2.9,3.8,5.4,8.4,4.8,13.2c-0.5,4.8-5.2,9.2-9.8,8c2.7,3.2,5.4,6.5,7,10.4c1.6,3.9,2,8.5,0.1,12.2c-1.9,3.7-6.6,6.1-10.4,4.6
	c1.9,4.2,3.8,8.6,4.2,13.2c0.5,4.6-0.7,9.7-4.1,12.8c-3.4,3.1-9.4,3.5-12.4,0c-0.3,3.2-0.8,6.4-0.3,9.6c0.6,3.1,1,6.4,0.2,9.5
	c-0.8,3.1-3.1,6-6.2,6.5c-3.1,0.6-6.6-2.1-6.3-5.3c-0.2,4.9-0.9,9.8-3.1,14.2c-2.2,4.3-6.2,7.9-11,8.5c-4.8,0.5-10-2.7-10.7-7.5
	c-2.2,3.9-4.5,7.8-7.6,11c-3.2,3.1-7.4,5.4-11.9,5.2c-4.4-0.2-10.5-5.1-11.1-9.6c-2.5,3.9-6.6,8.3-10.3,11.1c-3.7,2.7-8.8,4-12.9,2
	c-4.1-2-6.2-8-3.4-11.6c-4.7,2.6-9.5,5.2-14.7,5.9c-5.3,0.7-11.2-0.8-14.3-5.2c-3.1-4.4-1.9-11.7,3.1-13.7
	c-4.6,1.4-9.5,2.7-14.2,1.9c-4.8-0.8-9.5-4.1-10.3-8.9c-0.8-4.8,4-10.1,8.6-8.5c-4.7-1.7-9.3-4-13.5-6.8c-2.7-1.8-5.4-4-6.9-7
	c-2.8-5.7,4.5-10.9,9.7-9.8c-3.8-1.3-7.6-3.4-9.9-6.8c-2.3-3.4-3.1-8.1-1.1-11.6c2-3.6,7-5.3,10.4-3.1c-4.1-2.6-7.3-6.8-8-11.6
	c-0.8-4.8,1.3-10.1,5.4-12.6c4.1-2.5,10.2-1.5,12.8,2.6c-1.5-3.7-2.3-7.7-1.5-11.6c0.8-3.9,3.5-7.5,7.2-8.6c3.7-1.1,8.4,0.9,9.5,4.6
	c-1.4-5.2,2.3-11.2,7.6-12.2c5.3-0.9,10.8,3.5,11.2,8.9c0.6-4.3,5-7.7,9.2-7c4.2,0.7,7.4,6.3,6.6,10.6
	c-15.3,4.8-29.7,13.4-37.4,27.7c-7.7,14.3-7.5,33.3,2.9,45.7c9.1,10.8,24.2,15,38.1,13.7c21.3-1.9,41-15.2,52.5-33.4
	c11.6-18.2,15.5-40.9,12.8-62.4c-2.6-20.4-11.6-37.9-20.7-55.9c-9.3-18.2-12.8-39-12.4-59.3c0.2-9.3,1.2-18.6,2.7-27.7
	c0.8-4.5,2.3-9.1,2.5-13.6c0.2-3.7,0.3-6.4,1.5-10c5.9-17.8,14.4-34.5,20.9-52c7.4-20.1,12.1-42.1,6.7-62.8
	c-5.5-21.1-21.9-39-42.3-46.2c-20.4-7.2-44.1-3.6-61.6,9.3"/>
<path class="st1" d="M208.7,417.9c-11.3,36.6-50.3,63-88,58.7c-22.7-2.6-43.1-16.2-50.5-38.7c-2-6.3-2.9-12.9-2.7-19.5
	c0.5-12.9,6.1-25.7,15.9-34c9.7-8.2,23.4-11.6,35.5-8c0.1,0,0.2,0.1,0.3,0.1c-12.1,8.8-23,20.7-23.3,35.8
	c-0.3,12.6,8,24.8,19.5,29.5c11.5,4.8,25.5,2.2,35-5.9c11.6-9.7,15.7-26.4,11.8-41c-4.7-17.7-20.6-28-36.2-35.1
	c-17.2-7.8-34.9-11.9-49.4-24.8c-1.1-0.9-2.1-1.9-3.1-2.9c-18.8-18.7-26.1-43.8-26.1-70.1c0-4.5,0.3-8.9,0.8-13.4
	c0.8-6.6,2-13.2,3.8-19.6c1.4-5.1,3.2-10.1,5.2-15c9.6-23.2,24.2-44.8,43.6-60.5c0.1-0.1,3.7-1.3,9.5-3.1
	c26.2-8.2,97.4-30.1,97.4-30.1s-2.1,26.5-22.7,52.9c-12.7,16.4-27.9,55.5-7.3,98.8C188.2,293.9,228,355.3,208.7,417.9"/>
<path class="st2" d="M169.9,428c-7.6,12.6-20.5,22.1-34.9,24.6c-14.4,2.5-30.1-2.5-39.8-13.6c-9.7-11.1-12.6-28.1-6.2-41.5
	c5.3-10.9,17.7-20.1,29.9-21.2c0.1,0,0.2,0,0.3,0.1c-12.1,8.8-23,20.7-23.3,35.8c-0.3,12.6,8,24.8,19.5,29.5
	c11.5,4.8,25.5,2.2,35-5.9c11.6-9.7,15.7-26.3,11.8-41c-4.7-17.7-20.6-28-36.2-35.1c-17.2-7.8-34.8-11.9-49.4-24.8
	c-1.1-0.9-2.1-1.9-3.1-2.9c-18.8-18.7-26.1-43.8-26.1-70c0-4.5,0.3-9,0.8-13.4c0.8-6.6,2-13.2,3.8-19.6c1.4-5.1,3.2-10.1,5.2-14.9
	c9.6-23.2,24.2-44.8,43.6-60.5c0.1-0.1,3.7-1.3,9.5-3.1c0.5,0.4,0.9,0.8,1.4,1.3c4.9,4.9,10,10.6,13.7,16.6
	c-17.9,23.5-31.3,51.4-33.4,81c-2.1,29.6,8.3,61,30.9,79.8c12.4,10.4,28,16.7,39.2,28.4C179.7,375.9,183.1,406.4,169.9,428"/>
<path class="st1" d="M56.4,117.6c2.2-5.9,1.6-12.8,2.4-18.8c0.9-6.8,2.2-13.6,4.1-20.3c3.7-12.7,10.1-25,20-33.7
	c13.6-11.9,32.4-15.8,50.4-15.6c17.9,0.2,36.4,4.5,50.1,16.2c13.1,11.2,20.3,28.1,23.6,45.1c4,20.7,1.9,44.3-12.3,59.7
	c-11,11.9-27.2,17.1-43,20.3c-16,3.3-32.7,5-48.4,0.6C92,168,81.6,161.8,70.1,160c-16.8-2.8-34.8,4.7-44.9,18.6
	c-1.8,2.5-3.9,5.5-6.9,5.8c-5.3,0.4-9.4-5.1-11.9-9.1c-3-4.7-5-10.2-5.8-15.7c-1-6.4-1.1-16.5,3.1-22.1c1.6-2.1,3.6-2,5.9-1.4
	c9.1,2.3,18.9,0.9,27.5-2.7c5.9-2.5,12-5.6,16.3-10.6C54.7,121.2,55.7,119.4,56.4,117.6"/>
<path class="st3" d="M104.1,106.8c-1.3,3.3-3.6,5.4-5.3,4.7c-1.7-0.7-2-3.8-0.7-7.1c1.3-3.3,3.6-5.4,5.3-4.7
	C105,100.4,105.3,103.5,104.1,106.8"/>
<path class="st0" d="M181.7,157c-5.6,2.9-11,6.1-16.9,8.4c-5.8,2.3-11.8,4.1-17.9,5.3c-12.3,2.5-25,2.7-37.4,0.7
	c-6.9-1.1-13.8-2.9-20.5-5.2c-0.4-0.1-0.7,0.5-0.3,0.7c11.7,5.2,24.3,7.7,37.1,7.8c12.7,0.1,25.5-2.1,37.5-6.5
	c3.3-1.2,6.6-2.6,9.8-4.2c3.3-1.6,6.5-3.4,9.4-5.6C183.2,157.7,182.6,156.6,181.7,157"/>
<path class="st0" d="M124.3,38.6c-0.2,1.7,1.4,3,2.9,3.7c2.2,1,4.7,1.7,7.1,1.4c4.3-0.5,10.3-8.1,3.8-9.8
	C135.1,33.2,124.8,35,124.3,38.6"/>
<path class="st0" d="M155.6,47.9c1.4-0.5,2.2-2,2.6-3.5c0.6-2.3,0.5-4.8-1-6.6c-2.9-3.6-6.9-0.9-7.4,2.9
	C149.4,43.7,151.5,49.5,155.6,47.9"/>
<path class="st0" d="M147.7,47.3c-1.6-4.4-11.5-1.4-10.8,3.3c0.1,0.9,0.8,1.7,1.7,2.1c0.8,0.4,1.8,0.5,2.7,0.4
	c1.8-0.1,3.6-0.9,5-2.1C147.3,50.1,148.2,48.6,147.7,47.3"/>
<path class="st0" d="M158,218c0,1,0.2,2.1,1.1,2.5c1.1,0.6,2.3-0.3,3.1-1.2c1.6-1.8,2.9-3.8,3.7-6.1c0.6-1.6,1-3.3,0.6-5
	c-0.3-1.7-1.5-3.2-3.1-3.6C158.4,203.4,157.9,215,158,218"/>
<path class="st0" d="M149.3,225.4c0.2,0.8,0.6,1.8,1.3,2.1c0.7,0.3,1.5,0,2.1-0.5c0.6-0.5,0.9-1.3,1.1-2c0.5-1.8,0.6-3.8,0.2-5.7
	c-0.2-1-0.6-2-1.3-2.7c-1.7-1.8-3.8-1-4.1,1.1C148.4,219.9,148.8,223.4,149.3,225.4"/>
<path class="st0" d="M163.5,227.4c-1.8-4.3-7.1,0-8,2.8c-0.5,1.6,0.3,3.7,1.9,4c1.3,0.3,2.6-0.7,3.6-1.6c0.8-0.7,1.6-1.4,2.1-2.3
	C163.7,229.5,163.9,228.4,163.5,227.4"/>
<path class="st0" d="M202.4,383.4c0.3,1.1,1,2.3,2.1,2.3c0.9,0.1,1.7-0.7,2.3-1.5c2-2.9,2.6-6.7,2.5-10.2c-0.1-3.2-4-9.6-6.6-4.6
	C200.6,373,201.2,379.8,202.4,383.4"/>
<path class="st0" d="M200.3,389.9c0.4-1.7,0.8-6.2-1.7-6.5c-1.3-0.2-2,1.1-2.4,2.1c-0.8,1.9-0.7,6.3,2,6.5
	C199.2,392.1,200,390.9,200.3,389.9"/>
<path class="st0" d="M208.9,393.7c2.9-6-4.4-6.1-5.3-1c-0.3,1.6,0.7,3.5,2.3,3.6C207.2,396.4,208.3,395,208.9,393.7"/>
<path class="st0" d="M76.8,430.4c-1.7-2.4-4.4-1.3-4.9,1.2c-0.5,2.4,0.3,5.2,1.9,7c0.5,0.5,1.1,1,1.8,0.9c0.9-0.1,1.4-1.1,1.6-2
	c0.3-1.3,0.5-2.6,0.4-4C77.6,432.5,77.4,431.3,76.8,430.4"/>
<path class="st0" d="M81.1,440.9c-1.7,0.2-2-2.1-2-3.3c0-1.2,0.6-2.6,2-2.4c0.9,0.1,1.6,0.8,1.9,1.7c0.3,0.9,0.1,1.8-0.3,2.6
	C82.4,440.1,81.9,440.8,81.1,440.9"/>
<path class="st0" d="M76.6,442.5c-0.1,0.3-0.2,0.6,0,0.9c0.1,0.2,0.4,0.4,0.7,0.4c0.5,0,0.9-0.1,1.3-0.4c0.6-0.6,0.8-2-0.3-2.2
	C77.6,441,76.8,441.9,76.6,442.5"/>
<path class="st0" d="M203.4,93.8c-0.2-1.6-0.5-3.3-0.8-4.9c-0.7-3.4-1.6-6.8-2.7-10.1c-2.2-6.6-5.2-12.9-8.9-18.8
	c-0.2-0.4-0.8,0-0.6,0.3c3.6,5.9,6.5,12.3,8.5,18.9c1,3.3,1.8,6.6,2.4,10c0.3,1.8,0.6,3.5,0.8,5.3c0.2,1.4,0.1,3.3,0.7,4.6
	c0.2,0.3,0.6,0.2,0.7-0.1C204.1,97.5,203.6,95.3,203.4,93.8"/>
<path class="st0" d="M200.5,91.6c-0.1-0.9-0.3-1.8-0.5-2.7c-0.3-1.7-0.8-3.4-1.3-5c-1.1-3.4-2.5-6.6-4.2-9.7c-0.3-0.5-1-0.1-0.7,0.4
	c1.6,3.1,2.9,6.4,3.8,9.7c0.5,1.6,0.8,3.3,1.1,4.9c0.2,0.8,0.3,1.7,0.4,2.6c0.1,0.8,0.1,1.6,0.5,2.3c0.2,0.4,0.7,0.2,0.8-0.1
	C200.8,93.2,200.6,92.3,200.5,91.6"/>
<path class="st0" d="M9.9,174.7c-0.4-2-1.6-4-2.2-6c-0.7-2.1-1.3-4.2-1.7-6.4c-0.8-4.3-0.8-8.8-0.5-13.2c0-0.5-0.8-0.6-0.9-0.1
	c-0.9,4.5-0.8,9,0,13.5c0.4,2.2,1,4.4,1.7,6.6c0.7,2,1.5,4.5,3,5.9C9.5,175.4,10,175.1,9.9,174.7"/>
<path class="st0" d="M10.1,165.9c-0.5-1.5-0.9-3.1-1.1-4.7c-0.1-0.7-1.4-0.6-1.3,0.2c0.2,1.7,0.5,3.3,0.9,4.9c0.4,1.5,1,3.2,2.1,4.4
	c0.2,0.2,0.7,0.1,0.6-0.3C11.3,168.9,10.6,167.4,10.1,165.9"/>
<path class="st0" d="M191.5,442c-2.2,1.8-3.9,4.2-5.9,6.3c-1.9,2-4,4-6.1,5.8c-4.4,3.7-9.1,7.1-14.1,9.9c-0.4,0.2,0,0.7,0.3,0.6
	c5.3-2.5,10.2-5.5,14.7-9.3c2.2-1.8,4.3-3.8,6.4-5.9c2-2.1,4.2-4.3,5.4-6.9C192.3,442,191.9,441.7,191.5,442"/>
<path class="st0" d="M182.5,446.6c-1.5,1.2-2.8,2.7-4.2,4c-1.4,1.3-2.9,2.6-4.4,3.8c-0.4,0.3,0,1.1,0.4,0.7c1.6-1.2,3.2-2.4,4.7-3.7
	c1.5-1.3,3-2.7,4.1-4.4C183.3,446.6,182.8,446.3,182.5,446.6"/>
<path class="st0" d="M152.5,235.1c0-0.1,0-0.2-0.1-0.2c0-0.1-0.1-0.1-0.1-0.2c0-0.1-0.1-0.1-0.2-0.2c-0.1-0.1-0.2-0.1-0.3-0.2
	c0,0-0.1,0-0.2,0c0,0-0.1,0-0.1,0c0,0,0,0,0,0l-0.2,0c-0.1,0-0.3,0-0.4,0c-0.1,0-0.2,0.1-0.4,0.1c-0.1,0-0.2,0.1-0.3,0.2
	c-0.1,0.1-0.2,0.2-0.3,0.3c-0.1,0.1-0.1,0.2-0.1,0.4c0,0.1,0,0.3,0,0.4l0.1,0.2c0.1,0.2,0.2,0.3,0.4,0.4c0.1,0,0.2,0.1,0.2,0.1
	c0.2,0,0.4,0,0.5,0c0.1,0,0.3,0,0.4-0.1c0.1-0.1,0.2-0.1,0.3-0.2c0,0,0,0,0.1-0.1c0.1,0,0.1-0.1,0.2-0.1c0.1,0,0.1-0.1,0.2-0.1
	c0.1-0.1,0.1-0.1,0.1-0.2c0-0.1,0.1-0.1,0.1-0.2C152.5,235.3,152.5,235.2,152.5,235.1"/>
<path class="st0" d="M162.1,235.6c-1.4,0-1.4,2.1,0,2.1C163.4,237.8,163.4,235.6,162.1,235.6"/>
<path class="st0" d="M159.6,243c0-0.1,0-0.2-0.1-0.3c0-0.1-0.1-0.3-0.2-0.4c-0.1,0-0.1-0.1-0.2-0.2c-0.1-0.1-0.2-0.2-0.3-0.2
	c-0.1-0.1-0.2-0.1-0.4-0.1l-0.2,0c-0.2,0-0.3,0.1-0.4,0.2c0,0.1-0.1,0.1-0.2,0.2c-0.1,0.1-0.1,0.2-0.2,0.2c0,0.1-0.1,0.2-0.1,0.3
	c0,0.2-0.1,0.3,0,0.5c0,0.1,0,0.2,0.1,0.3c0,0.1,0.1,0.2,0.1,0.2c0,0.1,0.1,0.2,0.2,0.2c0.1,0.1,0.2,0.1,0.3,0.2
	c0.1,0.1,0.3,0.1,0.4,0.1c0.1,0,0.2,0,0.3,0c0.1,0,0.2-0.1,0.3-0.1c0.1-0.1,0.2-0.1,0.2-0.2c0.1-0.1,0.1-0.2,0.2-0.2
	c0-0.1,0.1-0.2,0.1-0.3C159.6,243.3,159.6,243.1,159.6,243"/>
<path class="st0" d="M155.8,211.2c0-0.1-0.1-0.2-0.1-0.2c-0.1-0.1-0.2-0.2-0.3-0.3c-0.1-0.1-0.2-0.1-0.3-0.2c0,0-0.1,0-0.1-0.1
	c-0.2-0.1-0.4-0.1-0.6,0c-0.2,0.1-0.3,0.1-0.5,0.3c-0.1,0.1-0.1,0.1-0.2,0.2c-0.1,0.2-0.1,0.4-0.1,0.5c0,0.2,0,0.3,0.1,0.4
	c0,0.1,0.1,0.3,0.2,0.3c0.1,0.1,0.3,0.2,0.5,0.3c0.2,0.1,0.4,0.1,0.6,0c0,0,0.1,0,0.1-0.1c0.1,0,0.2-0.1,0.2-0.1
	c0.1-0.1,0.2-0.2,0.3-0.3c0.1-0.1,0.1-0.1,0.1-0.2c0.1-0.1,0.1-0.2,0.1-0.4C155.8,211.4,155.8,211.3,155.8,211.2"/>
<path class="st0" d="M196.1,374.4c0,0,0-0.1-0.1-0.1c0,0,0,0,0-0.1c0,0,0,0,0,0c0-0.1-0.1-0.1-0.1-0.2l-0.2-0.2c0,0-0.1,0-0.1,0
	c-0.1,0-0.2-0.1-0.3-0.1c-0.1,0-0.2,0-0.2,0c-0.1,0-0.2,0.1-0.2,0.1c-0.1,0-0.1,0.1-0.2,0.2c-0.1,0.1-0.1,0.1-0.1,0.2c0,0,0,0,0,0
	l0,0.1c0,0-0.1,0.1-0.1,0.1c-0.1,0.2-0.1,0.3-0.1,0.5c0,0.2,0.1,0.4,0.1,0.5c0.2,0.3,0.5,0.5,0.9,0.5c0.4,0,0.7-0.2,0.9-0.5
	c0.1-0.2,0.1-0.3,0.1-0.5C196.3,374.7,196.2,374.5,196.1,374.4"/>
<path class="st0" d="M199.5,363.2c-0.1-0.1-0.2-0.2-0.3-0.3c0,0-0.1,0-0.1-0.1c0,0-0.1,0-0.1,0c0,0,0,0,0,0l-0.1,0c0,0-0.1,0-0.1,0
	c-0.1,0-0.1-0.1-0.2-0.1c-0.2-0.1-0.3-0.1-0.5,0c-0.2,0-0.3,0.1-0.4,0.2c-0.1,0.1-0.1,0.1-0.2,0.2c-0.1,0.1-0.1,0.3-0.1,0.5
	c0,0.1,0,0.3,0.1,0.4c0,0.1,0.1,0.2,0.2,0.3c0.1,0.1,0.3,0.2,0.4,0.2c0.2,0.1,0.3,0.1,0.5,0l0.2-0.1c0,0,0.1,0,0.1,0l0.1,0h0
	c0,0,0.1,0,0.1,0c0,0,0.1,0,0.1-0.1c0.1-0.1,0.2-0.2,0.3-0.3c0.1-0.1,0.1-0.3,0.1-0.4C199.7,363.4,199.6,363.3,199.5,363.2"/>
<path class="st0" d="M206.8,362.9c-0.1-0.1-0.2-0.3-0.3-0.3c-0.1-0.1-0.3-0.1-0.5-0.1c-0.2,0-0.3,0-0.5,0.1c-0.1,0-0.2,0.1-0.3,0.2
	c-0.1,0.1-0.1,0.2-0.2,0.3c-0.1,0.1-0.1,0.2-0.1,0.3c0,0.1,0,0.3,0.1,0.4c0,0.1,0.1,0.2,0.1,0.3c0.2,0.3,0.5,0.5,0.8,0.5
	c0.3,0,0.6-0.2,0.8-0.5C207,363.6,207,363.2,206.8,362.9"/>
<path class="st0" d="M200.9,351.5c-1.1,0-1.1,1.8,0,1.8C202.1,353.4,202.1,351.5,200.9,351.5"/>
<path class="st0" d="M76.3,423c0-0.1-0.1-0.2-0.2-0.3c-0.1-0.1-0.3-0.2-0.4-0.3c0,0-0.1,0-0.1,0c-0.1,0-0.2,0-0.3,0h-0.1
	c0,0,0,0-0.1,0c-0.1,0-0.2,0-0.4,0c0,0-0.1,0-0.1,0c-0.2,0.1-0.4,0.2-0.5,0.3c-0.1,0.1-0.1,0.2-0.2,0.2c-0.1,0.2-0.2,0.4-0.2,0.6
	c0,0.2,0,0.3,0.1,0.5c0,0.2,0.1,0.3,0.2,0.4c0.1,0.1,0.2,0.2,0.4,0.3c0.1,0.1,0.3,0.1,0.5,0.1c0.2,0,0.4-0.1,0.6-0.2
	c0,0,0.1,0,0.1-0.1c0,0,0.1-0.1,0.1-0.1c0.1,0,0.1-0.1,0.1-0.1c0,0,0,0,0,0c0,0,0,0,0,0c0.1-0.1,0.2-0.3,0.3-0.4
	c0.1-0.2,0.1-0.3,0.1-0.5C76.4,423.2,76.3,423.1,76.3,423"/>
<path class="st0" d="M79.7,424.4c-1.3,0-1.3,2.1,0,2.1C81.1,426.4,81.1,424.4,79.7,424.4"/>
<path class="st0" d="M80.6,430c-1.4,0-1.4,2.3,0,2.3C82,432.3,82,430,80.6,430"/>
<path class="st0" d="M81.7,447.2c0-0.1,0-0.2-0.1-0.3c-0.1-0.2-0.1-0.3-0.3-0.4c-0.1-0.1-0.2-0.1-0.3-0.2c-0.1,0-0.2-0.1-0.3-0.1
	c-0.2-0.1-0.3-0.1-0.5,0c-0.2,0-0.3,0.1-0.5,0.2c0,0-0.1,0.1-0.1,0.1c-0.2,0.1-0.3,0.3-0.5,0.5c-0.1,0.2-0.2,0.4-0.2,0.7
	c0,0.1,0,0.2,0,0.4c0.1,0.2,0.2,0.4,0.3,0.6c0.1,0.1,0.2,0.2,0.4,0.3c0.2,0.1,0.3,0.1,0.5,0.1c0.2,0,0.5-0.1,0.7-0.2
	c0.2-0.1,0.4-0.3,0.5-0.5c0,0,0-0.1,0.1-0.1c0-0.1,0.1-0.2,0.1-0.3C81.8,447.5,81.8,447.4,81.7,447.2"/>
<path class="st0" d="M85.9,443.8c-1.7,0-1.7,2.6,0,2.6C87.5,446.4,87.5,443.8,85.9,443.8"/>
<path class="st0" d="M87.1,451c-1.1,0-1.1,1.8,0,1.8C88.3,452.8,88.3,451,87.1,451"/>
<path class="st0" d="M101,264.8c-2.5,0-2.5,3.9,0,3.9C103.4,268.7,103.4,264.8,101,264.8"/>
<path class="st0" d="M106.7,256.3c-3.9,0-3.9,6.1,0,6.1C110.6,262.5,110.6,256.3,106.7,256.3"/>
<path class="st0" d="M109.2,268.1c-4.8,0-4.8,7.5,0,7.5C114,275.7,114,268.1,109.2,268.1"/>
<path class="st0" d="M192.2,322.2c-0.2-0.2-0.4-0.3-0.7-0.3c-0.3,0-0.5,0.1-0.7,0.3c-0.1,0.1-0.2,0.3-0.3,0.5
	c-0.1,0.2-0.1,0.3,0,0.5c0,0.1,0,0.1,0.1,0.2l0.1,0.2c0.1,0.1,0.1,0.2,0.2,0.3c0.1,0.1,0.1,0.1,0.2,0.1c0.1,0.1,0.2,0.1,0.4,0.1
	c0.2,0,0.3-0.1,0.5-0.1c0.1-0.1,0.2-0.1,0.3-0.2c0.1-0.1,0.1-0.2,0.2-0.3c0-0.1,0.1-0.1,0.1-0.2
	C192.6,322.9,192.5,322.4,192.2,322.2"/>
<path class="st0" d="M197.6,324.4c-0.1-0.3-0.2-0.5-0.4-0.8c-0.1-0.1-0.2-0.2-0.3-0.3c-0.3-0.2-0.6-0.2-0.9-0.2
	c-0.2,0-0.4,0-0.6,0.2c-0.2,0.1-0.4,0.2-0.6,0.4c-0.2,0.2-0.3,0.3-0.4,0.6c-0.1,0.2-0.2,0.4-0.1,0.7l0.1,0.4
	c0.1,0.3,0.2,0.6,0.4,0.8c0.1,0.1,0.2,0.2,0.3,0.3c0.3,0.2,0.5,0.2,0.8,0.2c0.2,0,0.5,0,0.7-0.2c0.2-0.1,0.4-0.2,0.5-0.3
	c0.2-0.2,0.3-0.3,0.3-0.6c0.1-0.2,0.2-0.4,0.2-0.7C197.7,324.7,197.6,324.5,197.6,324.4"/>
<path class="st0" d="M193.4,329.4c-1.5,0-1.5,2.4,0,2.4C195,331.8,195,329.4,193.4,329.4"/>
<path class="st0" d="M119.7,470c-0.1-0.3-0.3-0.7-0.5-0.9c-0.1-0.1-0.3-0.2-0.4-0.3c-0.3-0.2-0.7-0.3-1-0.3c-0.3,0-0.5,0.1-0.8,0.2
	c-0.3,0.1-0.5,0.2-0.6,0.4c-0.2,0.2-0.3,0.4-0.4,0.7c-0.1,0.2-0.2,0.5-0.2,0.8c0,0.2,0,0.4,0.1,0.5c0.1,0.3,0.3,0.7,0.5,0.9
	c0.1,0.1,0.3,0.2,0.4,0.3c0.3,0.2,0.7,0.3,1,0.3c0.3,0,0.5-0.1,0.8-0.2c0.2-0.1,0.5-0.2,0.6-0.4c0.2-0.2,0.3-0.4,0.4-0.6
	c0.1-0.2,0.2-0.5,0.2-0.8C119.7,470.4,119.7,470.2,119.7,470"/>
<path class="st0" d="M117.1,36.5c-1.9,0-1.9,2.9,0,2.9C119,39.4,119,36.5,117.1,36.5"/>
<path class="st0" d="M127.6,46.8c-1.8,0-1.8,2.9,0,2.9C129.4,49.7,129.4,46.8,127.6,46.8"/>
<path class="st0" d="M121.5,48.7c-0.1-0.3-0.3-0.6-0.5-0.8l-0.4-0.3c-0.3-0.2-0.6-0.3-1-0.3c-0.2,0-0.5,0-0.7,0.2
	c-0.2,0.1-0.4,0.2-0.6,0.4c-0.2,0.2-0.3,0.4-0.4,0.6c-0.1,0.2-0.2,0.5-0.2,0.7c0,0.2,0,0.3,0.1,0.5c0.1,0.3,0.2,0.6,0.5,0.8
	c0.1,0.1,0.3,0.2,0.4,0.3c0.3,0.2,0.6,0.3,0.9,0.3c0.3,0,0.5,0,0.7-0.2c0.2-0.1,0.4-0.2,0.6-0.4c0.2-0.2,0.3-0.4,0.4-0.6
	c0.1-0.2,0.2-0.5,0.2-0.7C121.5,49,121.5,48.9,121.5,48.7"/>
<path class="st0" d="M130.2,57.4c-0.7-0.4-1.7-0.4-2.3,0c-0.2,0.1-0.4,0.3-0.5,0.5c-0.2,0.2-0.3,0.4-0.3,0.7c0,0.2,0,0.3-0.1,0.5
	c0,0.3,0,0.5,0.2,0.8c0,0.2,0.1,0.3,0.3,0.4c0.1,0.2,0.3,0.4,0.5,0.5c0.4,0.2,1,0.4,1.5,0.2c0,0,0.1,0,0.1,0
	c0.2-0.1,0.4-0.1,0.5-0.2c0.3-0.2,0.6-0.5,0.8-0.8c0.1-0.1,0.1-0.2,0.2-0.3c0.1-0.3,0.1-0.2,0.1-0.5c0-0.1,0-0.2,0-0.3
	C131.1,58.3,130.7,57.8,130.2,57.4"/>
<path class="st0" d="M170.3,44c0-0.2,0-0.4-0.1-0.5c-0.1-0.2-0.2-0.5-0.4-0.7c-0.1-0.1-0.3-0.2-0.4-0.3c-0.2-0.1-0.3-0.1-0.5-0.2
	c-0.3-0.1-0.5-0.1-0.8,0c-0.3,0-0.5,0.1-0.8,0.3c-0.1,0-0.1,0-0.2,0.1c-0.3,0.2-0.6,0.5-0.8,0.8c-0.2,0.3-0.3,0.7-0.3,1.1L166,45
	c0.1,0.4,0.3,0.7,0.6,1c0.2,0.2,0.4,0.4,0.7,0.4c0.3,0.1,0.5,0.2,0.8,0.2c0.4,0,0.7-0.1,1.1-0.3c0.3-0.2,0.6-0.4,0.8-0.8
	c0-0.1,0.1-0.1,0.1-0.2c0.1-0.2,0.1-0.3,0.2-0.5C170.3,44.5,170.3,44.2,170.3,44"/>
<path class="st0" d="M164,54.8l-0.2-0.4l0,0c0,0,0,0,0-0.1c-0.1-0.3-0.3-0.4-0.5-0.6c-0.2-0.2-0.4-0.3-0.7-0.4l-0.5-0.1
	c-0.2,0-0.3,0-0.5,0.1c-0.3,0.1-0.5,0.2-0.7,0.4c-0.2,0.1-0.4,0.3-0.5,0.6c-0.1,0.2-0.1,0.3-0.2,0.5c-0.1,0.3-0.1,0.5,0,0.8
	c0,0.3,0.1,0.5,0.2,0.8c0.1,0.1,0.2,0.3,0.3,0.4c0.2,0.2,0.4,0.3,0.6,0.4c0.2,0.1,0.3,0.1,0.5,0.1c0.3,0.1,0.5,0,0.8,0
	c0.2-0.1,0.3-0.1,0.5-0.2c0.3-0.2,0.5-0.4,0.7-0.7c0,0,0,0,0-0.1c0,0,0,0,0,0c0,0,0,0,0,0c0.1-0.2,0.2-0.4,0.2-0.7
	C164.1,55.3,164.1,55.1,164,54.8"/>
<path class="st0" d="M195.6,139.7c-2.4,0-2.4,3.8,0,3.8C198,143.5,198,139.7,195.6,139.7"/>
<path class="st0" d="M194.1,132.5c-1.9,0-1.9,2.9,0,2.9C195.9,135.4,195.9,132.5,194.1,132.5"/>
<path class="st0" d="M189.6,137.1c-1.6,0-1.6,2.6,0,2.6C191.3,139.7,191.3,137.1,189.6,137.1"/>
<path class="st0" d="M67.1,105.9C67.1,105.9,67.1,105.9,67.1,105.9C67.1,105.9,67.1,105.9,67.1,105.9c-0.1-0.1-0.1-0.2-0.1-0.2
	c-0.1-0.2-0.2-0.4-0.3-0.5c-0.2-0.2-0.3-0.3-0.5-0.3c-0.4-0.1-0.9,0-1.2,0.3c-0.3,0.3-0.4,0.8-0.3,1.2c0.1,0.2,0.2,0.4,0.3,0.5
	c0.2,0.2,0.3,0.3,0.5,0.3c0.1,0,0.1,0.1,0.2,0.1c0.1,0,0.1,0,0.2,0.1c0.1,0,0.2,0,0.3,0c0.1,0,0.2,0,0.3-0.1
	c0.2-0.1,0.2-0.1,0.4-0.2c0,0,0.2-0.2,0.2-0.2c0-0.1,0.1-0.2,0.1-0.3c0-0.1,0-0.2,0-0.3C67.1,106.1,67.1,106,67.1,105.9"/>
<path class="st0" d="M65.2,98c-1.6,0-1.6,2.6,0,2.6C66.8,100.6,66.8,98,65.2,98"/>
<path class="st0" d="M73,102.5c0-0.3,0-0.5-0.2-0.7c-0.1-0.2-0.2-0.4-0.4-0.6c-0.1-0.1-0.2-0.2-0.4-0.3c-0.3-0.2-0.6-0.3-1-0.3
	c-0.1,0-0.2,0-0.2,0l-0.6,0.1c-0.2,0.1-0.3,0.2-0.5,0.2c-0.2,0.1-0.4,0.3-0.6,0.6c-0.1,0.1-0.2,0.3-0.3,0.5
	c-0.1,0.2-0.1,0.4-0.1,0.6c-0.1,0.2-0.1,0.4,0,0.6c0,0.2,0,0.4,0.1,0.5c0.1,0.3,0.2,0.5,0.5,0.7c0.1,0.1,0.3,0.2,0.4,0.3
	c0.2,0.1,0.3,0.1,0.5,0.2l0.6,0.1l0.6-0.1c0.2-0.1,0.3-0.2,0.5-0.2c0.2-0.1,0.4-0.3,0.6-0.6c0.1-0.1,0.2-0.3,0.3-0.5
	c0.1-0.3,0.2-0.5,0.2-0.8C73,102.7,73,102.6,73,102.5"/>
</svg>
