<?xml version="1.0" encoding="utf-8"?>
<!-- Generator: Adobe Illustrator 28.0.0, SVG Export Plug-In . SVG Version: 6.00 Build 0)  -->
<svg version="1.1" id="Layer_1" xmlns="http://www.w3.org/2000/svg" xmlns:xlink="http://www.w3.org/1999/xlink" x="0px" y="0px"
	 viewBox="0 0 153.3 130.7" style="enable-background:new 0 0 153.3 130.7;" xml:space="preserve">
<style type="text/css">
	.st0{fill:#D74310;}
	.st1{fill:#F5933C;}
	.st2{fill:#E66238;}
	.st3{fill:#BB4420;}
	.st4{fill:#792D15;}
</style>
<polygon class="st0" points="62.4,37.5 59,38.4 54.1,18.2 57.5,17.3 "/>
<polygon class="st0" points="83,37.5 86.4,38.4 91.3,18.2 87.9,17.3 "/>
<path class="st1" d="M60.6,12.8c0-3.7-2.9-6.6-6.5-6.6c-3.6,0-6.5,3-6.5,6.6c0,3.7,2.9,6.6,6.5,6.6C57.7,19.5,60.6,16.5,60.6,12.8"
	/>
<path d="M56.5,12.2C56,10.3,54.6,9,53.2,9.4c-1.4,0.3-2.1,2.2-1.6,4.1c0.5,1.9,1.9,3.2,3.3,2.9C56.3,16,57,14.1,56.5,12.2"/>
<polygon class="st0" points="43,48.6 35.7,55.1 33.3,52.3 23.9,41.3 22.3,39.4 29.6,33 31.3,34.9 40.5,45.7 "/>
<path class="st1" d="M23.3,6.5c0,0.6-0.3,1.2-0.8,1.4c-0.5,0.2-1.2,0-1.6-0.4c-0.8-0.8-1.4-2.5-0.2-3.2c0.6-0.3,1.4-0.2,1.9,0.3
	C23.2,5.1,23.4,5.8,23.3,6.5 M19.2,8c0.6-0.2,1.3,0.3,1.4,1C21,12.1,15.8,8.9,19.2,8 M17.3,7.4c-1.1,0.7-2.4-0.2-3.1-1.4
	c-0.8-1.4-0.9-3.2,1-3.3c0.1,0,0.3,0,0.4,0c0.7,0.1,1.3,0.5,1.8,1.1c0.4,0.6,0.6,1.3,0.6,2C17.9,6.5,17.7,7.1,17.3,7.4 M3,34
	c-0.1,0.2-0.4,0.7-0.7,0.8c-0.1,0-0.2,0-0.2,0c-0.2-0.1-0.3-0.3-0.3-0.4c-0.1-0.4,0.1-1,0.3-1.3c0.2-0.3,0.7-0.6,1-0.4
	C3.6,32.9,3.2,33.7,3,34 M15.9,0.2C12.7-0.2,9.3,0,5.7,0.8C4.3,6.4,5,12.4,7.3,17.5c0.6,1.3,1.3,2.6,2.2,3.8c-0.9-1.1-1.9-2-3-2.9
	c-1.8,2-3.5,3.8-4.6,7.2c-0.4,1.2-0.7,2.6-1,4.3c0.3,0.6,0.3,1.4,0,2c-0.1,0.3-0.2,0.6-0.4,0.8c-0.2,1.6-0.3,3.3-0.5,5
	c2.6,2.6,5.6,4.5,9,5.4c5.2,1.4,10.5,0.6,14.9-1.9l-1.6-1.9l7.3-6.5l1.7,2c2.1-2.8,3.6-6,4.2-9.6C37.4,13.8,29.2,1.9,15.9,0.2"/>
<path class="st2" d="M0.9,30c0.3,0.6,0.3,1.4,0,2c-0.1,0.3-0.2,0.6-0.4,0.8C0.6,31.8,0.7,30.9,0.9,30"/>
<path class="st2" d="M3,34c-0.1,0.2-0.4,0.7-0.7,0.8c-0.1,0-0.2,0-0.2,0c-0.2-0.1-0.3-0.3-0.3-0.4c0-0.4,0.1-1,0.3-1.3
	c0.2-0.3,0.7-0.6,1-0.4C3.6,32.9,3.2,33.7,3,34"/>
<path class="st2" d="M20.6,9c0.4,3.1-4.8-0.2-1.4-1C19.8,7.9,20.5,8.4,20.6,9"/>
<path class="st2" d="M22.5,8c-0.5,0.2-1.2,0-1.6-0.4c-0.8-0.8-1.4-2.5-0.2-3.2c0.6-0.3,1.4-0.2,1.9,0.3c0.5,0.5,0.7,1.2,0.7,1.9
	C23.3,7.1,23,7.7,22.5,8"/>
<path class="st1" d="M31.3,34.9c-2,2.6-4.5,4.8-7.4,6.4l-1.6-1.9l7.3-6.5L31.3,34.9z"/>
<path class="st0" d="M5.7,112.6c-2.4,5.3-2.9,11.5-1.3,17.1c0.1,0.3,0.2,0.7,0.5,0.9c0.5,0.4,1.2,0.1,1.6-0.5
	c0.3-0.5,0.4-1.2,0.4-1.8c0.3-5.1,2.3-10.1,5.4-14.1c3.2-4,7.6-6.9,12.4-8.3c-0.8-1.3-1.7-2.5-2.8-3.5c-1-0.9-2.5-1.7-3.9-1.7
	c-1.2,0-2.6,1.1-3.6,1.8c-2.4,1.6-4.5,3.6-6.2,5.9C7.2,109.7,6.4,111.1,5.7,112.6"/>
<path class="st0" d="M34.8,110.3c-7.2,3.8-12.7,10.9-14.6,18.9c-0.1,0.5-0.3,1.2-0.9,1.3c-0.5,0.1-1-0.4-1.2-0.9
	c-1.3-2.1-1.8-4.7-1.8-7.1c0-2.5,0.6-4.9,1.4-7.3c1.4-3.8,3.6-7.6,7.1-9.6C28.1,103.8,32.2,107.5,34.8,110.3"/>
<path class="st0" d="M47,112.8c-3.6,0.6-6.5,3.1-8.6,6.1c-2,3-3.3,6.5-4.8,9.8c-0.3,0.7-0.9,1.6-1.7,1.4c-0.5-0.1-0.8-0.6-1-1
	c-0.5-1.1-0.6-2.4-0.6-3.6c-0.1-5.4,1.5-10.8,4.6-15.2C39.1,108.7,43.6,110.1,47,112.8"/>
<path class="st1" d="M84.8,12.8c0-3.7,2.9-6.6,6.5-6.6c3.6,0,6.5,3,6.5,6.6c0,3.7-2.9,6.6-6.5,6.6C87.7,19.5,84.8,16.5,84.8,12.8"/>
<path d="M88.9,12.2c0.5-1.9,1.9-3.2,3.3-2.9c1.4,0.3,2.1,2.2,1.6,4.1c-0.5,1.9-1.9,3.2-3.3,2.9C89.1,16,88.4,14.1,88.9,12.2"/>
<polygon class="st0" points="102.4,48.6 109.7,55.1 123.1,39.4 115.8,33 "/>
<path class="st1" d="M152.8,13.7c-6.4-0.1-12.7,2.8-16.9,7.7c4.1-5.9,5.5-13.5,3.8-20.6c-19-4.5-32.1,10.2-29.7,24.6
	c2,12.1,14.5,21.2,26.5,17.8C147.4,40.1,155.4,26.4,152.8,13.7"/>
<path class="st0" d="M139.7,112.6c2.4,5.3,2.9,11.5,1.3,17.1c-0.1,0.3-0.2,0.7-0.5,0.9c-0.5,0.4-1.2,0.1-1.6-0.5
	c-0.3-0.5-0.4-1.2-0.4-1.8c-0.3-5.1-2.3-10.1-5.4-14.1c-3.2-4-7.6-6.9-12.4-8.3c0.8-1.3,1.7-2.5,2.8-3.5c1-0.9,2.5-1.7,3.9-1.7
	c1.2,0,2.6,1.1,3.6,1.8c2.4,1.6,4.5,3.6,6.2,5.9C138.2,109.7,139,111.1,139.7,112.6"/>
<path class="st0" d="M110.6,110.3c7.2,3.8,12.7,10.9,14.6,18.9c0.1,0.5,0.3,1.2,0.9,1.3c0.5,0.1,1-0.4,1.2-0.9
	c1.3-2.1,1.8-4.7,1.8-7.1c0-2.5-0.6-4.9-1.4-7.3c-1.4-3.8-3.6-7.6-7.1-9.6C117.3,103.8,113.2,107.5,110.6,110.3"/>
<path class="st0" d="M98.4,112.8c3.6,0.6,6.5,3.1,8.6,6.1c2,3,3.3,6.5,4.8,9.8c0.3,0.7,0.9,1.6,1.7,1.4c0.5-0.1,0.8-0.6,1-1
	c0.5-1.1,0.6-2.4,0.6-3.6c0.1-5.4-1.5-10.8-4.6-15.2C106.3,108.7,101.8,110.1,98.4,112.8"/>
<path class="st1" d="M127.7,100.6c0,3.2-20.3,15.5-55,15.5s-54.9-12.3-55-15.5c-0.7-62.2,49.8-67,55-67
	C77.8,33.7,128.4,38.4,127.7,100.6"/>
<path d="M76.7,56.2c-0.2,1-0.7,1.9-1.6,2.5c-0.4,0.3-0.9,0.5-1.4,0.7c-0.2,0.1-0.5,0.1-0.7,0.1c-0.1,0-0.2,0-0.4,0
	c-0.1,0-0.2,0-0.3,0c-0.2,0-0.5-0.1-0.7-0.1c-0.5-0.1-1-0.4-1.4-0.7c-0.8-0.6-1.4-1.5-1.6-2.5c0-0.2-0.3-0.1-0.3,0
	c0.1,1.1,0.6,2.2,1.4,3c0.4,0.5,0.9,0.8,1.5,1.1c0.3,0.1,0.5,0.2,0.8,0.3c0.2,0,0.4,0.1,0.6,0.1c0.2,0,0.4-0.1,0.6-0.1
	c0.3-0.1,0.6-0.2,0.8-0.3c0.6-0.2,1.1-0.6,1.5-1.1c0.8-0.8,1.3-1.9,1.4-3C77,56.1,76.7,56.1,76.7,56.2"/>
<path class="st0" d="M30.5,63.3c-0.2,0.9-0.3,1.9,0.3,2.6c0.5,0.6,1.4,0.7,2.1,0.6c2.6-0.3,4.7-2.4,5.7-4.8c0.4-1,0.7-2.1,0.6-3.2
	c-0.3-2.4-2.9-4.1-4.8-2.2C32.7,58.1,31.1,61,30.5,63.3"/>
<path class="st0" d="M38.3,74.3c0.5,0.5,1.2,1.1,1.9,0.8c0.6-0.2,0.8-0.9,1-1.5c0.4-1.3,0.5-2.8,0.1-4.1c-0.6-1.9-4-4-5.3-1.5
	C35.1,69.7,37.2,73.2,38.3,74.3"/>
<path class="st0" d="M28.4,73.1c-0.3,1.2,0.2,2.6,1.3,3c0.9,0.3,1.8-0.1,2.6-0.7c0.8-0.6,1.4-1.4,1.7-2.4c0.2-1,0-2.1-0.7-2.8
	C31.2,68.2,28.8,71.2,28.4,73.1"/>
<path class="st0" d="M114.2,90.9c2.3-0.3,4.4-2,5.1-4.3c1.5-4.4-4.3-6.3-7.1-3.6C109.8,85.4,109.6,91.5,114.2,90.9"/>
<path class="st0" d="M118.5,77.4c0.2-2.4,1.6-4.5,3.5-1.6c0.6,0.9,0.7,2.1,0.5,3.2c-0.1,0.7-0.4,1.4-1,1.7
	C119.2,82,118.4,79.6,118.5,77.4"/>
<path class="st0" d="M112.2,81.1c-0.8,0.1-1.8,0-2.2-0.7c-1.2-2,2.1-3.6,3.7-3.8c1.2-0.1,2.9,0.3,2.8,1.7
	C116.3,80,113.5,80.9,112.2,81.1"/>
<path class="st0" d="M89.5,46c1.2,0.6,3,0.3,3.6-0.9c0.4-0.8,0.3-1.7-0.1-2.5c-0.6-1.5-2-2.5-3.5-3c-0.8-0.2-1.6-0.3-2.4,0
	c-0.8,0.3-1.4,0.9-1.7,1.7C85.1,43,88.2,45.4,89.5,46"/>
<path class="st0" d="M116.6,10.1c-0.2,0.6-0.3,1.2,0.1,1.7c0.3,0.3,0.7,0.4,1.1,0.4c0.4,0,0.8-0.2,1.1-0.4c0.8-0.4,1.6-1,2.1-1.8
	c0.5-0.8,0.7-1.8,0.3-2.7C119.8,4.1,117.1,8.6,116.6,10.1"/>
<path class="st0" d="M125.1,6.3c-1.1-2.9-3.9,1.6-1.8,2.7c0.3,0.2,0.7,0.1,1-0.1c0.3-0.2,0.5-0.5,0.7-0.8
	C125.2,7.5,125.3,6.8,125.1,6.3"/>
<path class="st0" d="M123.7,11c-0.5-0.5-1.2-0.2-1.8,0c-0.5,0.2-0.9,0.6-1.1,1.2c-0.2,0.6-0.2,1.3,0.3,1.7c0.5,0.4,1.2,0.2,1.7-0.1
	c0.5-0.3,0.9-0.7,1-1.2C124.1,12.1,124.1,11.4,123.7,11"/>
<path class="st0" d="M132.3,41.9c0.7,0.2,1.4,0.2,2.1-0.1c0.7-0.3,1.2-0.9,1.2-1.6c0-2.1-2.8-1.9-4-1.3
	C129.8,39.8,130.6,41.6,132.3,41.9"/>
<path class="st3" d="M23.3,6.5c0,0.6-0.3,1.2-0.8,1.4c-0.5,0.2-1.2,0-1.6-0.4c-0.8-0.8-1.4-2.5-0.2-3.2c0.6-0.3,1.4-0.2,1.9,0.3
	C23.2,5.1,23.4,5.8,23.3,6.5"/>
<path class="st3" d="M19.2,8c0.6-0.2,1.3,0.3,1.4,1C21,12.1,15.8,8.9,19.2,8"/>
<path class="st3" d="M0.9,32c-0.1,0.3-0.2,0.6-0.4,0.8c0.1-1,0.2-1.9,0.4-2.8C1.1,30.6,1.1,31.4,0.9,32"/>
<path class="st3" d="M3,34c-0.1,0.2-0.4,0.7-0.7,0.8c-0.1,0-0.2,0-0.2,0c-0.2-0.1-0.3-0.3-0.3-0.4c0-0.4,0.1-1,0.3-1.3
	c0.2-0.3,0.7-0.6,1-0.4C3.6,32.9,3.2,33.7,3,34"/>
<path class="st4" d="M15.8,103.4c-0.4-0.1-0.8,0.2-1.2,0.4c-0.4,0.2-0.8,0.5-1.2,0.7c-0.8,0.5-1.5,1.1-2.2,1.8
	c-1.4,1.3-2.5,2.9-3.3,4.7c-0.1,0.2,0.2,0.4,0.3,0.2c0.9-1.6,2-3.1,3.4-4.4c0.7-0.6,1.4-1.2,2.1-1.7c0.4-0.2,0.7-0.5,1.1-0.7
	c0.3-0.2,0.9-0.4,1.1-0.7C15.9,103.6,15.9,103.4,15.8,103.4"/>
<path class="st4" d="M14.7,105.3c-0.7,0.1-1.2,0.5-1.7,0.9c-0.2,0.2-0.5,0.4-0.7,0.7c-0.2,0.3-0.4,0.5-0.6,0.8
	c-0.1,0.2,0.2,0.4,0.3,0.2c0.2-0.2,0.4-0.5,0.6-0.7c0.2-0.2,0.4-0.4,0.7-0.6c0.5-0.4,1-0.7,1.4-1.1
	C14.9,105.5,14.8,105.3,14.7,105.3"/>
<path class="st4" d="M20.8,113.4c-0.4,0.1-0.7,0.5-0.9,0.8c-0.3,0.4-0.6,0.9-0.8,1.3c-0.5,0.9-0.8,1.8-1.1,2.8c-0.5,2-0.5,4,0,5.9
	c0,0.2,0.3,0.1,0.3-0.1c-0.4-1.9-0.3-3.9,0.3-5.7c0.3-0.9,0.6-1.8,1.1-2.6c0.2-0.4,0.5-0.8,0.8-1.2c0.2-0.3,0.6-0.7,0.7-1.1
	C21,113.5,20.9,113.3,20.8,113.4"/>
<path class="st4" d="M21,115.1c-0.3,0.3-0.5,0.7-0.6,1.1c-0.2,0.4-0.4,0.8-0.5,1.1c-0.1,0.2,0.2,0.4,0.3,0.2
	c0.2-0.4,0.4-0.8,0.6-1.2c0.2-0.4,0.4-0.8,0.5-1.2C21.2,115.1,21.1,115.1,21,115.1"/>
<path class="st4" d="M33.8,115.2c-0.4,0.8-0.8,1.5-1.1,2.3c-0.3,0.9-0.5,1.8-0.6,2.7c-0.1,0.9-0.2,1.7-0.1,2.6c0,0.7,0,1.8,0.5,2.4
	c0.1,0.1,0.2,0,0.3-0.1c0.1-0.4,0-0.8,0-1.2c0-0.4-0.1-0.8-0.1-1.2c0-0.8,0-1.7,0.1-2.5c0.1-0.8,0.3-1.6,0.5-2.4
	c0.3-0.8,0.5-1.7,0.9-2.5C34.2,115.2,33.9,115,33.8,115.2"/>
<path class="st4" d="M34,119.8c-0.3,0.5-0.5,1-0.7,1.5c-0.1,0.3-0.1,0.6-0.1,0.8c0,0.3,0,0.6,0.2,0.8c0.1,0.1,0.2,0.1,0.3,0
	c0.2-0.2,0.2-0.5,0.2-0.7c0-0.3,0.1-0.5,0.1-0.8c0.1-0.5,0.3-1,0.5-1.4C34.6,119.8,34.2,119.6,34,119.8"/>
<path class="st4" d="M139.5,114.8c-0.2-0.6-0.5-1.3-0.7-1.9c-0.6-1.3-1.2-2.5-2-3.6c-1.6-2.2-3.5-4.1-5.8-5.6
	c-0.3-0.2-0.5,0.3-0.2,0.4c2.2,1.5,4.1,3.4,5.6,5.6c0.7,1.1,1.4,2.2,1.9,3.4c0.3,0.6,0.5,1.2,0.7,1.9c0.2,0.6,0.3,1.2,0.6,1.8
	c0.1,0.2,0.4,0.1,0.4-0.1C140,116.1,139.8,115.4,139.5,114.8"/>
<path class="st4" d="M137.1,111.4c-0.1-0.1-0.1-0.2-0.2-0.3c-0.1-0.2-0.3-0.4-0.4-0.6c-0.3-0.4-0.6-0.7-0.9-1.1
	c-0.1-0.1-0.3-0.1-0.3,0c-0.1,0.1-0.1,0.2,0,0.3c0.3,0.4,0.6,0.7,0.8,1.1c0.1,0.2,0.3,0.4,0.4,0.5c0.1,0.1,0.2,0.2,0.2,0.3
	c0.1,0.1,0.2,0.2,0.3,0.2c0.1,0.1,0.3,0,0.2-0.2C137.2,111.6,137.2,111.5,137.1,111.4"/>
<path class="st4" d="M128.4,121.8c-0.1-0.7-0.2-1.4-0.3-2.1c-0.3-1.4-0.7-2.8-1.2-4.2c-1.1-2.7-2.6-5.1-4.6-7.2
	c-0.2-0.2-0.6,0.1-0.3,0.4c1.9,2.1,3.4,4.5,4.5,7.1c0.5,1.3,0.9,2.6,1.1,3.9c0.1,0.7,0.2,1.4,0.3,2.1c0.1,0.6,0,1.3,0.3,1.9
	c0,0.1,0.2,0.1,0.3,0C128.6,123.2,128.5,122.4,128.4,121.8"/>
<path class="st4" d="M126.8,119.3c-0.1-0.3-0.2-0.6-0.3-1c-0.2-0.6-0.5-1.2-0.7-1.9c-0.1-0.2-0.4,0-0.3,0.2c0.3,0.6,0.5,1.2,0.7,1.8
	c0.1,0.3,0.2,0.6,0.2,0.9c0.1,0.3,0.1,0.6,0.3,0.9c0.1,0.1,0.3,0.1,0.3,0C127,120,126.9,119.7,126.8,119.3"/>
<path class="st4" d="M113.9,120.9c-0.2-1-0.4-2-0.7-3c-0.6-1.9-1.3-3.8-2.3-5.6c-0.2-0.3-0.6,0-0.4,0.3c0.8,1.8,1.6,3.6,2.1,5.5
	c0.2,0.9,0.4,1.8,0.6,2.7c0.2,0.9,0.2,2,0.5,2.9c0.1,0.2,0.4,0.2,0.4,0C114.3,122.8,114,121.8,113.9,120.9"/>
<path class="st4" d="M111.6,117c0-0.1-0.1-0.2-0.1-0.3c-0.1-0.2-0.2-0.4-0.3-0.5c-0.2-0.4-0.4-0.7-0.6-1.1c-0.1-0.2-0.5-0.1-0.4,0.2
	c0.2,0.4,0.3,0.8,0.5,1.1c0.1,0.2,0.2,0.4,0.2,0.5c0,0.1,0.1,0.2,0.1,0.3c0,0.1,0.1,0.2,0.2,0.3c0.1,0.1,0.3,0,0.3-0.1
	C111.7,117.2,111.7,117.1,111.6,117"/>
<path class="st3" d="M22.4,83.1c0-0.3-0.4-0.4-0.5-0.1c-0.6,2.6-1,5.3-1.1,8c-0.1,1.3-0.1,2.7-0.1,4c0,0.7,0,1.4,0.1,2.1
	c0,0.6,0.1,1.3,0.3,1.9c0,0.2,0.3,0.2,0.4,0c0.2-1.2,0-2.6,0-3.8c0-1.3,0-2.7,0.1-4C21.7,88.4,22,85.7,22.4,83.1"/>
<path class="st3" d="M22.9,90.7c0-0.3-0.4-0.4-0.5-0.1c-0.2,0.9-0.3,1.7-0.4,2.6c0,0.4-0.1,0.9-0.1,1.3c0,0.4,0,0.9,0.1,1.4
	c0.1,0.2,0.3,0.2,0.4,0c0.1-0.4,0.1-0.8,0.1-1.2c0-0.4,0-0.9,0.1-1.3C22.7,92.5,22.8,91.6,22.9,90.7"/>
<path class="st3" d="M117,62.9c-0.3-0.7-0.7-1.4-1.1-2c-0.8-1.4-1.7-2.8-2.6-4c-1.9-2.5-4-4.9-6.4-6.9c-0.2-0.2-0.5,0.1-0.3,0.3
	c2.2,2.2,4.3,4.5,6.1,7c0.9,1.2,1.7,2.5,2.5,3.8c0.4,0.7,0.7,1.3,1.1,2c0.3,0.6,0.6,1.5,1.2,2c0.1,0.1,0.3,0,0.3-0.1
	C117.8,64.2,117.3,63.5,117,62.9"/>
<path class="st3" d="M114.2,60.9c-0.3-0.6-0.6-1.2-1-1.8c-0.4-0.6-0.7-1.1-1.1-1.7c-0.1-0.2-0.4,0-0.3,0.2c0.4,0.6,0.7,1.2,1.1,1.8
	c0.4,0.6,0.7,1.2,1.2,1.7C114.1,61.1,114.3,61,114.2,60.9"/>
<path class="st4" d="M113,37.8c-0.5,0.4-0.8,0.8-1.1,1.3c-0.3,0.5-0.7,1-1,1.5c-0.7,1-1.3,2.1-2,3.1c-0.1,0.2,0.2,0.4,0.3,0.2
	c0.7-1,1.4-2,2.1-3c0.3-0.5,0.7-1,1-1.5c0.3-0.5,0.7-1,0.9-1.6C113.3,37.9,113.1,37.8,113,37.8"/>
<path class="st4" d="M113.1,39.5c-0.1,0.1-0.2,0.1-0.3,0.2c-0.1,0.1-0.1,0.2-0.2,0.3c-0.2,0.2-0.3,0.4-0.4,0.6
	c-0.3,0.4-0.5,0.8-0.8,1.1c-0.1,0.1,0,0.3,0.1,0.4c0.1,0.1,0.3,0,0.4-0.1c0.3-0.4,0.5-0.7,0.8-1.1c0.1-0.2,0.3-0.4,0.4-0.6
	c0.1-0.1,0.1-0.2,0.2-0.3c0.1-0.1,0.1-0.2,0.1-0.4C113.4,39.6,113.2,39.4,113.1,39.5"/>
<path class="st4" d="M35.8,42.8c-0.4-0.6-0.9-1.3-1.3-1.9c-0.9-1.3-1.8-2.5-2.8-3.8c-0.2-0.3-0.6,0-0.5,0.3c0.9,1.3,1.8,2.6,2.6,3.9
	c0.5,0.7,0.9,1.3,1.4,1.9c0.4,0.6,0.8,1.2,1.4,1.7c0.1,0.1,0.2-0.1,0.2-0.2C36.7,44.1,36.2,43.4,35.8,42.8"/>
<path class="st4" d="M34.4,43.6c-0.1-0.7-0.5-1.3-0.9-1.9c-0.4-0.6-0.9-1.1-1.4-1.6c-0.3-0.3-0.7,0.1-0.4,0.4c0.5,0.5,0.9,1,1.3,1.6
	c0.4,0.6,0.7,1.2,1.2,1.7C34.2,43.9,34.4,43.7,34.4,43.6"/>
<path class="st0" d="M17.9,5.9c0,0.6-0.2,1.2-0.6,1.5c-1.1,0.7-2.4-0.2-3.1-1.4c-0.8-1.4-0.9-3.2,1-3.3c0.1,0,0.2,0,0.4,0
	c0.7,0.1,1.3,0.5,1.7,1.1C17.7,4.5,17.9,5.2,17.9,5.9"/>
</svg>
