<?xml version="1.0" encoding="utf-8"?>
<!-- Generator: Adobe Illustrator 28.0.0, SVG Export Plug-In . SVG Version: 6.00 Build 0)  -->
<svg version="1.1" id="Layer_1" xmlns="http://www.w3.org/2000/svg" xmlns:xlink="http://www.w3.org/1999/xlink" x="0px" y="0px"
	 viewBox="0 0 408.2 259.7" style="enable-background:new 0 0 408.2 259.7;" xml:space="preserve">
<style type="text/css">
	.st0{fill:#776597;}
	.st1{fill:none;}
	.st2{fill:#6B627C;}
	.st3{fill:#BDB0D4;}
	.st4{fill:#8D7AB3;}
	.st5{opacity:0.4;fill:#FDEA39;}
	.st6{fill:#FBFFFF;}
	.st7{fill:#FFDB7D;}
</style>
<path class="st0" d="M408.2,175.2c-11.4,1.9-23.5-1.1-32.7-8.3c-12.2-9.6-18.5-25.2-30-35.7c-1.6-1.5-3.4-2.8-5.4-3.6
	c-2-0.8-3.9-1.3-5.8-0.3c-3.3-12.6,0.2-26.1,5.3-38.1c4.2-9.8,9.6-19.2,17.1-26.7c12.2-12.1,29.7-18.5,46.8-16.9
	c-6.4,5.3-10.9,12.1-12.2,20.3c-1.3,8.2,1.3,17.3,7.5,22.8c-7.7,3.2-13.5,11.8-13.6,20.2c-0.1,8.4,5,16.7,12.6,20.1
	c-6.2,2.6-10.3,8.4-11.4,15.2c-1,6.8,1.2,13.8,5.4,19.2C395.9,168.8,401.8,173.2,408.2,175.2"/>
<path class="st1" d="M356.7,62.6c-7.5,7.5-12.9,16.9-17.1,26.7c-5.1,12-8.6,25.5-5.3,38.1c1.9-1.1,3.8-0.5,5.8,0.3
	c2,0.8,3.8,2.1,5.4,3.6c11.5,10.5,17.7,26.1,30,35.7c9.1,7.2,21.3,10.2,32.7,8.3c-6.4-2-12.3-6.4-16.4-11.7
	c-4.2-5.4-6.4-12.4-5.4-19.1c1-6.7,5.1-12.6,11.3-15.2c-7.6-3.5-12.7-11.7-12.6-20.1c0.1-8.4,5.9-17,13.6-20.2
	c-6.2-5.5-8.8-14.5-7.5-22.8c1.3-8.2,5.8-15.1,12.2-20.3c-1.7-0.2-3.4-0.2-5.1-0.2C383,45.5,367.7,51.7,356.7,62.6"/>
<path class="st2" d="M332.6,114.5c-3.4-7-4.3-15-2.5-22.6c-4.5-1-8.6-3.4-11.7-6.9c-3-3.5-5-7.8-5.4-12.4c-3.7-0.4-7.3-2.1-10-4.7
	c-2.7-2.7-3.9-5.9-4.3-9.7c-4.3,0.5-8.8-0.9-12.2-3.8c-3.3-2.8-5.1-6.4-5.4-10.9c-5.8,1.3-12.2,0.1-17.1-3.2c-5-3.4-7.8-9.1-8.8-15
	c-6.5,2.1-13.9,1.6-20.1-1.5c-6.2-3-11.3-8.8-13.8-15.3c-5.7,4.5-13.2,6.6-20.5,5.8c-7.2-0.8-13.6-5-18.2-10.6
	c-16.2,15.8-28.3,35.9-34.6,57.7c48.3-12.8,101.7-6.3,145.6,17.8C309.1,87.7,324.4,99,332.6,114.5"/>
<path class="st3" d="M240.5,131.8c-3.6,10.5-5.5,21.7-5.7,32.8c0,1.6,0,3.2,0,4.8c0,1.6,0.1,3.1,0.4,4.6c0.1,0.5,0.7,0.3,0.7-0.1
	c0.3-2.7,0.1-5.5,0.1-8.2c0.1-2.8,0.2-5.5,0.4-8.2c0.5-5.5,1.4-11,2.6-16.4c0.7-3,1.6-6,2.5-9C241.8,131.4,240.8,131.1,240.5,131.8"
	/>
<path class="st3" d="M273.2,135.1c-2.1,4.7-3.4,9.8-4.6,14.8c-1.2,5.1-2.1,10.2-2.7,15.4c-0.2,1.5-0.3,2.9-0.4,4.4
	c-0.1,1.4-0.2,2.9,0,4.3c0.1,0.4,0.7,0.4,0.8,0c0.6-2.4,0.5-5,0.8-7.5c0.3-2.6,0.6-5.2,1-7.7c0.8-5.1,2-10.1,3.5-15
	c0.8-2.8,1.8-5.5,2.6-8.3C274.3,135,273.4,134.5,273.2,135.1"/>
<path class="st3" d="M302,149.7c-1.3,2.2-2.2,4.5-3.1,6.9c-0.9,2.3-1.8,4.7-2.5,7.1c-0.8,2.4-1.5,4.8-2.2,7.2
	c-0.6,2.4-1.4,4.8-1.4,7.3c0,0.3,0.5,0.5,0.6,0.2c1-2.3,1.4-4.8,2.1-7.2c0.6-2.4,1.3-4.7,2.1-7.1c0.8-2.3,1.6-4.6,2.5-6.9
	c0.9-2.4,2-4.7,2.8-7.1C303.1,149.5,302.3,149.2,302,149.7"/>
<path class="st1" d="M148.2,61.4c48.3-12.8,101.7-6.3,145.5,17.8c15.3,8.4,30.6,19.7,38.9,35.3c-3.4-7-4.3-15-2.5-22.6
	c-4.5-1-8.6-3.4-11.7-6.9c-3-3.5-5-7.8-5.4-12.4c-3.7-0.4-7.3-2.1-10-4.7c-2.7-2.7-3.9-5.9-4.3-9.7c-4.3,0.5-8.8-0.9-12.1-3.8
	c-3.3-2.8-5.1-6.5-5.4-10.9c-5.8,1.3-12.2,0.1-17.1-3.2c-5-3.4-7.8-9.1-8.8-15c-6.5,2.1-13.9,1.6-20.1-1.5
	c-6.2-3-11.3-8.8-13.7-15.3c-5.7,4.5-13.2,6.7-20.5,5.8c-7.2-0.8-13.6-5-18.2-10.6C166.6,19.5,154.6,39.6,148.2,61.4"/>
<path class="st4" d="M44.7,110.2c-1.4,0-2.6-1.1-2.7-2.6c-2-51.9,10.7-84.9,38.8-101c11.7-6.7,23.5-8.3,34.1-4.6
	c10.7,3.7,19.6,12.8,24.9,25.6c4.7,11.3,6.1,23.6,7.3,35.4c0.2,1.5-0.9,2.8-2.4,3c-1.5,0.2-2.8-0.9-2.9-2.4
	c-1.3-11.4-2.5-23.2-7-33.8c-4.7-11.4-12.4-19.4-21.7-22.6c-9.1-3.2-19.4-1.7-29.7,4.2c-14.5,8.3-24.8,22-30.5,40.5
	c-4.6,15-6.4,33.2-5.6,55.6c0.1,1.5-1.1,2.8-2.6,2.8H44.7z"/>
<path class="st5" d="M25,124.8c0,10.9,8.7,19.7,19.4,19.7c10.7,0,19.4-8.8,19.4-19.7c0-10.9-8.7-29-19.4-29
	C33.7,95.8,25,114,25,124.8"/>
<path class="st3" d="M337.1,125.3c-8.1,35.6-38.3,69.8-69.3,88.5c-31,18.7-69.6,24-104.4,14.3c-15.9-4.5-31.2-12.1-43.5-23.3
	c-8.5-7.8-15.4-17.3-19.9-28c-4.1-9.7-7.2-21.6-2.6-31.8l10.1,0.5c-2.7-32.9,11.6-63.5,34.4-82.3c23.1-19,54.2-26.6,83.7-23
	c29.5,3.6,57.2,18,79.2,38.2C319,91.4,331.1,107.1,337.1,125.3"/>
<path class="st6" d="M119.5,146.5c-0.4-6.9-2.9-13.6-7.1-19.1c-6.5,4.1-11.7,10.3-14.4,17.6C105.3,145.8,112.1,146.1,119.5,146.5"/>
<path class="st6" d="M135.9,147.2c0.2-6.3-1.7-12.5-5.6-17.4c-5.1,4.1-9,9.8-10.8,16.2C124.8,146.8,130.4,147.2,135.9,147.2"/>
<path class="st6" d="M153.7,147.2c-0.7-5.5-3.6-10.6-8-13.9c-4.6,3.2-8.1,8.1-9.6,13.6C141.8,147.6,147.8,147.7,153.7,147.2"/>
<path class="st6" d="M174.2,147.7c-1.6-5.1-4.5-9.8-8.5-13.3c-5.3,3-9.6,7.7-12.1,13.2C160.4,148.3,167.3,148.2,174.2,147.7"/>
<path class="st0" d="M237.1,143.4c10.2,12,23.3,21.2,37.5,28c14.1,6.8,29.3,10.5,44.6,13.6c-8.3,0.5-16.3,4.2-22.1,10.2
	c-5.8,6-8.5,13.6-8.8,22c-6,1.1-11.6,4.3-15.7,8.8c-4.1,4.6-6.6,10.3-7.1,16.5c-5.2-1.3-10.9-0.1-15.1,3.2c-4.2,3.3-6.6,8.6-6.6,14
	c-14.5-12.2-23.1-30.4-26.9-49.1c-3.8-18.7-3.4-38-2.4-57.1C220.5,147.3,228.5,143.6,237.1,143.4"/>
<path class="st1" d="M214.4,153.5c-0.9,19.1-1.4,38.4,2.4,57.1c3.8,18.7,12.4,37,26.9,49.1c0-5.4,2.4-10.7,6.6-14
	c4.2-3.3,10-4.5,15.1-3.2c0.5-6.2,3-11.9,7.1-16.5c4.1-4.6,9.7-7.7,15.7-8.8c0.3-8.4,3-16,8.8-22c5.8-6,13.9-9.7,22.2-10.2
	c-15.3-3.1-30.5-6.9-44.6-13.6c-14.1-6.8-27.3-16-37.5-28C228.5,143.6,220.5,147.3,214.4,153.5"/>
<path d="M161.1,111.7c-1.4,3.2-4.1,5.2-6,4.3c-1.9-0.8-2.4-4.2-1-7.4c1.4-3.2,4.1-5.2,6-4.3C162.1,105.2,162.5,108.5,161.1,111.7"/>
<path d="M185.6,147.1c-1.4-0.3-2.8-0.2-4.3-0.2H177c-2.9,0-5.8,0-8.6-0.1c-5.7-0.1-11.4-0.1-17.1-0.3c-11.5-0.3-23-0.7-34.5-1.3
	c-3.2-0.2-6.4-0.3-9.6-0.5c-1.6-0.1-3.2-0.2-4.8-0.2c-1.7,0-3.3,0.1-5,0.1c-0.4,0-0.6,0.7-0.1,0.8c1.4,0.2,2.8,0.5,4.2,0.7
	c1.4,0.2,2.8,0.3,4.2,0.5c2.9,0.3,5.7,0.5,8.6,0.7c5.7,0.4,11.5,0.7,17.2,1c11.5,0.6,23,1,34.5,1.2c3.3,0,6.5,0.1,9.8,0.1
	c1.6,0,3.2,0,4.8,0c1.7,0,3.3,0.1,5-0.3C186.7,149.2,186.7,147.4,185.6,147.1"/>
<path class="st4" d="M302.2,95.9c1.2,1.4,3,2.7,4.7,2c1.7-0.6,2.2-2.9,2-4.8c-0.4-3.2-2.2-6.1-4.9-7.9c-2.4-1.6-6-1.2-6.2,2.4
	C297.8,90.3,300.6,94,302.2,95.9"/>
<path class="st4" d="M304.5,108c6.9-2.6-6.6-11.7-8.6-4.6c-0.4,1.3,0.4,2.8,1.4,3.6c1.1,0.8,2.5,1.1,3.8,1.3
	C302.3,108.4,303.5,108.4,304.5,108"/>
<path class="st4" d="M312.7,99.8c1.4-0.6,3.1-0.2,3.8,1.6c0.6,1.5-0.2,3.4-1.6,4c-1.4,0.7-3.3,0-4-1.5
	C310,102.1,311.2,100.4,312.7,99.8"/>
<path class="st4" d="M111.5,181.5c0.7,0,1.4-0.5,1.9-1c0.5-0.6,0.7-1.3,1-2c0.5-1.4,0.8-2.8,0.9-4.2c0-1.4-0.3-2.9-1.2-4.1
	c-2.2-2.9-6.7-1.9-6.8,1.9C107.2,174.5,108.1,181.5,111.5,181.5"/>
<path class="st4" d="M115.4,189.9c1.2,0.6,2.6,0,3.7-0.8c2.3-1.9,2.7-8.1-1.6-6.6C115.1,183.3,112.3,188.3,115.4,189.9"/>
<path class="st4" d="M123.7,177.8c1.3-2.3-1.1-5.8-3.6-4c-1.6,1.2-2.3,4-0.3,5.2C121.1,179.6,123,179.1,123.7,177.8"/>
<path class="st7" d="M75.1,93.8c-1.3-0.4-2.8,0.8-3.8,1.4c-1.3,0.7-2.5,1.5-3.7,2.3c-1.2,0.8-2.3,1.6-3.5,2.5
	c-1.1,0.9-2.5,1.8-3.4,2.9c-0.5,0.6,0.1,1.4,0.8,1c1.2-0.7,2.3-1.7,3.4-2.5c1.2-0.9,2.4-1.7,3.6-2.5c1.2-0.8,2.4-1.5,3.7-2.2
	c1.1-0.6,2.8-1.2,3.3-2.4C75.6,94.2,75.4,93.8,75.1,93.8"/>
<path class="st7" d="M84.2,111c-1.1-0.9-3-0.8-4.3-0.8c-1.7-0.1-3.4,0-5.1,0c-3.3,0.1-6.6,0.3-9.9,0.9c-0.7,0.1-0.5,1.3,0.2,1.3
	c3.2,0,6.5-0.2,9.7-0.2c1.6,0,3.2,0,4.8,0.1c0.8,0,1.5,0.1,2.3,0c0.7,0,1.6,0,2.2-0.4C84.4,111.7,84.5,111.2,84.2,111"/>
<path class="st7" d="M82.4,128c-0.4-1.1-1.9-1.5-2.9-1.9c-1.1-0.5-2.3-0.9-3.4-1.2c-2.4-0.7-4.8-1.2-7.2-1.4c-0.8-0.1-1,1.2-0.2,1.4
	c2.3,0.5,4.6,1,6.8,1.8c1.1,0.4,2.2,0.8,3.3,1.2c0.9,0.4,2.2,1.2,3.2,0.9C82.2,128.6,82.5,128.3,82.4,128"/>
<path class="st7" d="M72.8,151.2c-0.2-1.2-1.2-2.3-2-3.2c-0.8-1-1.7-1.9-2.5-2.9c-1.7-1.9-3.4-3.9-5.2-5.6c-0.5-0.5-1.4,0.2-1,0.8
	c1.5,2.1,3.1,4.2,4.8,6.2c0.8,1,1.6,2,2.5,3c0.8,0.9,1.7,2,2.9,2.4C72.6,151.9,72.9,151.5,72.8,151.2"/>
<path class="st7" d="M55.4,161.9c-0.3-1.7-0.6-3.4-0.7-5.1c-0.4-3.3-0.5-6.6-0.4-9.9c0-1-1.4-1-1.5,0c-0.3,3.4-0.3,6.8,0,10.2
	c0.2,1.7,0.4,3.3,0.7,4.9c0.3,1.5,0.6,3.3,1.6,4.5c0.2,0.2,0.7,0.1,0.7-0.2C56.1,165,55.7,163.3,55.4,161.9"/>
<path class="st7" d="M39.8,148.9c-1.2,2.8-2.3,5.7-3.3,8.6c-0.5,1.4-1,2.8-1.5,4.2c-0.4,1.3-1.2,2.9-1.1,4.3c0,0.3,0.4,0.6,0.7,0.3
	c1-0.9,1.4-2.6,1.9-3.8c0.6-1.4,1.1-2.9,1.6-4.4c1-2.9,2.1-5.9,3-8.8C41.3,148.4,40.1,148.1,39.8,148.9"/>
<path class="st7" d="M29.9,145.5c-2.5,2.2-4.9,4.5-7.2,6.8c-1.1,1.1-2.2,2.3-3.3,3.5c-0.6,0.6-1.1,1.2-1.6,1.9
	c-0.5,0.6-1.1,1.3-1.3,2c-0.1,0.3,0.2,0.7,0.6,0.6c0.7-0.2,1.2-0.8,1.8-1.3c0.6-0.6,1.1-1.2,1.7-1.8c1.1-1.2,2.3-2.4,3.4-3.6
	c2.3-2.4,4.6-4.8,7-7.1C31.7,145.9,30.6,144.9,29.9,145.5"/>
<path class="st7" d="M23.4,137.5c-4.2,0.8-8.3,2-12.2,3.5c-1.9,0.7-3.8,1.6-5.7,2.4c-1,0.5-1.9,0.9-2.8,1.5c-0.9,0.5-1.9,1-2.6,1.9
	c-0.2,0.3-0.1,1,0.4,0.9c1-0.1,1.8-0.6,2.7-1c1-0.4,1.9-0.9,2.9-1.4c1.9-0.9,3.8-1.7,5.8-2.5c3.9-1.6,7.9-2.8,12-3.8
	C24.9,138.8,24.4,137.3,23.4,137.5"/>
<path class="st7" d="M22.8,112.6c-2.3-1.1-4.6-2.2-7-3.2c-1.2-0.5-2.3-1-3.5-1.5c-0.6-0.2-1.1-0.5-1.7-0.6c-0.6-0.2-1.2-0.5-1.7-0.1
	c-0.2,0.1-0.3,0.4-0.3,0.7c0.1,0.6,0.8,0.9,1.3,1.2c0.5,0.3,1.1,0.5,1.6,0.8c1.2,0.5,2.3,1,3.5,1.5c2.4,1,4.8,1.9,7.2,2.7
	C23,114.2,23.5,112.9,22.8,112.6"/>
<path class="st7" d="M31.5,99.5c-1.3-2-2.9-3.8-4.5-5.5c-0.8-0.8-1.6-1.6-2.5-2.4c-0.9-0.8-1.9-1.5-3-1.9c-0.4-0.1-0.8,0.4-0.5,0.7
	c0.6,1,1.5,1.8,2.3,2.5c0.8,0.8,1.7,1.6,2.5,2.4c1.6,1.6,3.2,3.3,4.8,5.1C31,100.9,32,100.2,31.5,99.5"/>
</svg>
