<?xml version="1.0" encoding="utf-8"?>
<!-- Generator: Adobe Illustrator 28.0.0, SVG Export Plug-In . SVG Version: 6.00 Build 0)  -->
<svg version="1.1" id="Layer_1" xmlns="http://www.w3.org/2000/svg" xmlns:xlink="http://www.w3.org/1999/xlink" x="0px" y="0px"
	 viewBox="0 0 303 149.1" style="enable-background:new 0 0 303 149.1;" xml:space="preserve">
<style type="text/css">
	.st0{fill:#FFFFFF;}
	.st1{opacity:0.6;fill:#FFFFFF;}
</style>
<path class="st0" d="M275.6,146.5V2.6h-17.7v64h-32.2v-64h-17.9v143.9h17.9V82.8h32.2v63.7H275.6z M180.6,114.1
	c0-17.5-8.5-31.1-25-46c-16.6-15.3-22.2-23.6-22.2-37.6c0-9.1,4.9-14.7,14.3-14.7c10.4,0,15.1,7.6,15.1,18.6v11.5h16.8V32.4
	c0-19-12.4-32.4-31.6-32.4C127.1,0,116,14.7,116,33.9c0,18.8,14.3,35.4,27.3,47.1c14.5,13.2,19.8,22.9,19.8,36.3
	c0,9.9-5.1,16.6-15.6,16.6c-10,0-15.6-6.9-15.6-19v-11.2h-17.5v13.2c0,18.8,13,32.2,33.1,32.2C165.3,149.1,180.6,137.4,180.6,114.1
	 M84.4,2.6H66.5v143.9h17.9V2.6z M54.8,18.8V2.6H0v143.9h17.9V81.7h28.6V65.9H17.9V18.8H54.8z"/>
<circle class="st1" cx="35.2" cy="136.4" r="11.3"/>
<circle class="st1" cx="103.2" cy="136.4" r="11.3"/>
<circle class="st1" cx="192" cy="136.4" r="11.3"/>
<circle class="st1" cx="291.6" cy="136.4" r="11.3"/>
</svg>
