<?xml version="1.0" encoding="utf-8"?>
<!-- Generator: Adobe Illustrator 28.0.0, SVG Export Plug-In . SVG Version: 6.00 Build 0)  -->
<svg version="1.1" id="Layer_1" xmlns="http://www.w3.org/2000/svg" xmlns:xlink="http://www.w3.org/1999/xlink" x="0px" y="0px"
	 viewBox="0 0 20 16" style="enable-background:new 0 0 20 16;" xml:space="preserve">
<path d="M13,6.1c0.3,0.6,0.4,1.2,0.4,2.1s-0.1,1.5-0.4,2.1s-0.7,0.9-1.1,0.9s-0.8-0.3-1.1-0.9c-0.3-0.6-0.4-1.3-0.4-2.1
	c0-0.8,0.1-1.5,0.4-2c0.3-0.6,0.7-0.9,1.1-0.9C12.4,5.3,12.8,5.6,13,6.1 M17.8,8.1c0,4.6-3.3,7.9-7.8,7.9s-7.8-3.4-7.8-7.9
	C2.2,3.5,5.5,0,10,0S17.8,3.5,17.8,8.1 M7.9,4.3H6.1L5.5,5.4h1.3V12h1.1L7.9,4.3L7.9,4.3z M14.6,8.2c0-1.2-0.3-2.3-0.9-3
	c-0.5-0.7-1.1-1-1.8-1s-1.3,0.3-1.8,1C9.5,6,9.2,6.9,9.2,8.2c0,1.3,0.3,2.3,0.9,3c0.5,0.7,1.1,1,1.8,1s1.3-0.3,1.8-1
	C14.3,10.4,14.6,9.4,14.6,8.2"/>
</svg>
