<?xml version="1.0" encoding="utf-8"?>
<!-- Generator: Adobe Illustrator 28.0.0, SVG Export Plug-In . SVG Version: 6.00 Build 0)  -->
<svg version="1.1" id="Layer_1" xmlns="http://www.w3.org/2000/svg" xmlns:xlink="http://www.w3.org/1999/xlink" x="0px" y="0px"
	 viewBox="0 0 169 36" style="enable-background:new 0 0 169 36;" xml:space="preserve">
<style type="text/css">
	.st0{fill:#FFFFFF;}
	.st1{fill:#F83843;}
</style>
<path class="st0" d="M108.3,4.5c-2-2.9-5.6-4.7-10-4.7c-3.7,0-6.3,1.7-8.3,3.9v-3h-3.8v12.1l0,0v22.5H90l0,0l0,0v-22
	c0-2.8,0.2-5.7,2.7-7.9c1.4-1.2,3.7-2,5.6-2s4.2,0.8,5.6,2c2.7,2.4,2.7,5.5,2.7,8.5v21.4h3.8V12.9C110.4,9.9,110.1,7.1,108.3,4.5z"
	/>
<path class="st0" d="M3.8,31.7H8c2.1,0,4.2-0.2,5.8-1.4c1.3-1,2.2-2.7,2.2-4.7c0-2.7-1.5-4.3-2.8-5c-1.2-0.7-3-1-5.6-1H3.8V31.7z
	 M3.8,16.2h2.8c1.9,0,6.5-0.4,6.5-5.7c0-5.6-5.4-5.7-6.4-5.7H3.8V16.2z M6.1,1.2c1.8,0,5.2,0.2,7.6,2.1c1,0.8,3,2.9,3,7.1
	c0,1.7-0.4,4.6-3.3,6.7c4.6,1.2,6.3,5.3,6.3,8.6s-1.6,5.9-3.4,7.4c-2.6,2.1-5.7,2.2-8,2.2H0.1V1.2H6.1z"/>
<path class="st0" d="M57.9,22.1c0,2.9,0,6,2.6,8.3c1.3,1.2,3.6,1.9,5.5,1.9c1.8,0,4.1-0.8,5.5-1.9c2.6-2.3,2.6-5.4,2.6-8.3V1.2h3.7
	v21.9c0,2.9-0.3,5.6-2.1,8.2c-2,2.8-5.5,4.6-9.7,4.6s-7.7-1.8-9.7-4.6c-1.8-2.6-2.1-5.3-2.1-8.2V1.2h3.7V22.1z"/>
<path class="st0" d="M143.8,8.8c-1-1.1-2.6-2.3-4.3-3.2c-1.7-0.8-3.8-1.3-5.7-1.3c-7.7,0-13.4,6.3-13.4,14.2
	c0,9.2,7.3,13.9,13.4,13.9c2.2,0,4.4-0.7,6.2-1.6c1.9-1,3.2-2.2,3.8-2.9v4.7c-3.7,2.7-7.5,3.3-10,3.3c-9.9,0-17.2-7.7-17.2-17.5
	c0-10.2,7.4-17.7,17.4-17.7c2,0,5.8,0.3,9.8,3.4V8.8z"/>
<polygon class="st0" points="167.9,4.8 154.3,4.8 154.3,14.9 167.5,14.9 167.5,18.5 154.3,18.5 154.3,31.7 167.9,31.7 167.9,35.3 
	150.6,35.3 150.6,1.2 167.9,1.2 "/>
<rect x="26.1" y="31.8" class="st0" width="19.9" height="3.6"/>
<path class="st1" d="M41.2,10.4c0.5,0.9,0.7,2,0.7,3.4s-0.2,2.5-0.7,3.4s-1.1,1.4-1.8,1.4s-1.3-0.4-1.8-1.4
	c-0.5-0.9-0.7-2.1-0.7-3.5c0-1.3,0.2-2.4,0.7-3.3C38.1,9.5,38.7,9,39.4,9C40.2,9,40.8,9.5,41.2,10.4 M49,13.6
	c0,7.5-5.4,12.9-12.7,12.9S23.6,21,23.6,13.6c0-7.5,5.4-13.2,12.7-13.2S49,6.1,49,13.6 M32.8,7.5h-2.9l-1,1.8H31V20h1.8V7.5z
	 M43.8,13.8c0-2-0.5-3.7-1.4-4.9c-0.8-1.1-1.8-1.6-3-1.6s-2.1,0.5-3,1.6c-0.9,1.2-1.4,2.8-1.4,4.8c0,2.1,0.5,3.7,1.4,4.9
	c0.8,1.1,1.8,1.6,3,1.6s2.1-0.5,2.9-1.6C43.3,17.4,43.8,15.8,43.8,13.8"/>
</svg>
