<?xml version="1.0" encoding="utf-8"?>
<!-- Generator: Adobe Illustrator 28.0.0, SVG Export Plug-In . SVG Version: 6.00 Build 0)  -->
<svg version="1.1" id="Layer_1" xmlns="http://www.w3.org/2000/svg" xmlns:xlink="http://www.w3.org/1999/xlink" x="0px" y="0px"
	 viewBox="0 0 243 142.3" style="enable-background:new 0 0 243 142.3;" xml:space="preserve">
<style type="text/css">
	.st0{fill:#FFFFFF;}
</style>
<g>
	<path class="st0" d="M9.5,17.2l14.6,23h5.2l15-23.2c-0.2,1.5-0.3,3.1-0.4,4.6c-0.2,3.8-0.4,8-0.4,12.8v20.7h10.2V0h-9.2L27,28.1
		L9.7,0H0v55.2h10.2V34.4c0-5.1-0.1-9.5-0.4-13.2C9.7,19.9,9.6,18.5,9.5,17.2z"/>
	<path class="st0" d="M102.5,23.3c-1.9-3.3-4.4-5.8-7.7-7.7c-3.3-1.9-6.9-2.8-11-2.8c-4.2,0-7.9,0.9-11.1,2.8
		c-3.3,1.9-5.8,4.4-7.7,7.7c-1.9,3.3-2.8,7-2.8,11.1c0,4.2,0.9,7.9,2.8,11.1s4.5,5.8,7.7,7.7C76,55,79.7,56,83.8,56
		c4.1,0,7.8-0.9,11-2.8c3.3-1.9,5.8-4.4,7.7-7.7s2.8-7,2.8-11.1C105.3,30.2,104.4,26.5,102.5,23.3z M94,41c-1,1.9-2.4,3.5-4.2,4.6
		c-1.8,1.2-3.8,1.7-6,1.7c-2.3,0-4.3-0.6-6.1-1.7c-1.8-1.2-3.2-2.7-4.2-4.6c-1-1.9-1.5-4.1-1.5-6.6c0-2.5,0.5-4.7,1.5-6.7
		s2.4-3.5,4.2-4.6c1.8-1.1,3.8-1.7,6.1-1.7c2.3,0,4.3,0.6,6,1.7c1.8,1.1,3.2,2.7,4.2,4.6c1,1.9,1.5,4.2,1.5,6.7
		C95.5,36.8,95.1,39,94,41z"/>
	<path class="st0" d="M143.2,14.7c-2.1-1.3-4.8-1.9-7.9-1.9c-2.2,0-4.4,0.5-6.5,1.4c-2.1,0.9-3.9,2.2-5.4,3.7
		c-0.5,0.5-0.9,1-1.3,1.6l-0.1-5.9h-9.5v41.5c0.7,0,1.4,0,2.2,0c0.8,0,1.7,0,2.6,0h4.8V30.1c0-1.3,0.2-2.4,0.7-3.5
		c0.5-1.1,1.2-2,2-2.8c0.9-0.8,1.9-1.4,3.1-1.9c1.2-0.4,2.5-0.7,3.9-0.7c1.7-0.1,3.2,0.2,4.4,0.9c1.2,0.7,2.1,1.7,2.7,3.1
		c0.6,1.4,0.9,3.1,0.9,5.2v24.7h9.7V29.8c0-3.8-0.5-6.9-1.6-9.5C146.9,17.8,145.3,15.9,143.2,14.7z"/>
	<path class="st0" d="M166.8,53.2c3.3,1.8,7.2,2.8,11.5,2.8c1.9,0,3.9-0.3,5.9-0.8s3.9-1.2,5.7-2.2c1.8-0.9,3.4-2,4.8-3.3L190,43
		c-1.9,1.6-3.7,2.8-5.3,3.4c-1.6,0.6-3.4,0.9-5.4,0.9c-2.8,0-5.2-0.5-7.3-1.6c-2.1-1.1-3.7-2.6-4.8-4.6c-0.8-1.3-1.2-2.8-1.5-4.5
		h30.6l0.1-3.4c0.1-2.9-0.4-5.7-1.3-8.2c-0.9-2.5-2.2-4.6-4-6.5c-1.7-1.8-3.8-3.2-6.1-4.3c-2.4-1.1-4.9-1.6-7.6-1.6
		c-3.1,0-6,0.5-8.6,1.6c-2.6,1.1-4.8,2.6-6.7,4.6c-1.9,2-3.3,4.3-4.4,7c-1.1,2.7-1.6,5.6-1.6,8.9c0,4.1,0.9,7.7,2.8,10.9
		C160.9,48.9,163.5,51.4,166.8,53.2z M170.9,22.8c1.8-1,3.9-1.5,6.5-1.5c1.7,0,3.2,0.4,4.6,1.1c1.4,0.7,2.5,1.7,3.4,2.9
		c0.9,1.2,1.4,2.7,1.6,4.3v0.4h-21c0.2-1.1,0.5-2,0.9-2.9C167.8,25.2,169.2,23.8,170.9,22.8z"/>
	<path class="st0" d="M231.7,13.6l-9.8,27.1c-0.4,1.2-0.7,2.3-1.1,3.4c-0.1-0.2-0.1-0.4-0.2-0.7c-0.4-1.1-0.7-2-1.1-2.7l-11.4-27.1
		h-11.2l19,42.4l-7.4,17.2h10.1l7.1-18.1L243,13.6H231.7z"/>
	<path class="st0" d="M52.4,108.2c-1.6-1.3-3.6-2.5-5.9-3.5c-1.3-0.5-2.7-1-4.2-1.5l0.1-14.5c0.9,0.3,1.7,0.6,2.5,1.1
		c2.3,1.2,4.4,3.1,6.2,5.5l5.8-7.1c-2.2-3-4.9-5.3-8.2-6.9c-1.9-0.9-4-1.5-6.3-1.9l0.1-6.1h-7.8l0.1,5.8c-1.8,0.2-3.5,0.5-5.1,1
		c-2.4,0.8-4.4,1.9-6.2,3.3c-1.8,1.4-3.2,3.1-4.2,5c-1,1.9-1.5,4.1-1.5,6.4c0,3,0.6,5.7,1.9,8c1.3,2.3,3.2,4.1,5.7,5.6
		c1.9,1.1,4.2,2.1,6.9,2.8l-0.1,14.9c-1.1-0.3-2.1-0.8-3.1-1.3c-2.5-1.4-5.1-3.8-7.8-7.3l-6.1,8c2.5,3.4,5.6,5.9,9.1,7.6
		c2.3,1.1,4.9,1.9,7.8,2.3l-0.1,6.7h7.8l-0.1-6.5c2.9-0.3,5.5-0.9,7.9-2c3.1-1.4,5.5-3.4,7.2-6c1.7-2.6,2.6-5.7,2.6-9.3
		c0-2.1-0.4-4-1.3-5.7C55.3,111,54,109.5,52.4,108.2z M28.7,97.3c-0.5-0.8-0.7-1.7-0.7-2.8c0-1.4,0.4-2.5,1.2-3.5
		c0.8-1,1.9-1.7,3.3-2.2c0.7-0.3,1.6-0.5,2.5-0.6l0.1,13.3c-0.3-0.1-0.7-0.2-1-0.3c-1.4-0.5-2.5-1-3.3-1.7
		C29.8,98.8,29.1,98.1,28.7,97.3z M45.9,123.9c-0.8,1-2,1.7-3.5,2.3c-0.9,0.3-1.8,0.5-2.7,0.7l-0.1-13.8c1.1,0.3,2.1,0.7,3,1.2
		c1,0.5,1.8,1.1,2.5,1.7c0.7,0.6,1.2,1.3,1.5,2c0.3,0.8,0.5,1.6,0.5,2.5C47.1,121.8,46.7,122.9,45.9,123.9z"/>
	<path class="st0" d="M77.8,103c1.8-1.1,3.9-1.7,6.2-1.7c1.4,0,2.7,0.3,4.1,0.8c1.4,0.5,2.7,1.2,3.9,2.1c1.2,0.9,2.2,1.9,3,3
		l5.4-6.5c-1.7-2.5-4-4.5-7.1-5.9c-3-1.4-6.4-2.1-10.2-2.1c-3.9,0-7.4,0.9-10.5,2.8c-3.1,1.9-5.5,4.5-7.3,7.7
		c-1.8,3.3-2.7,6.9-2.7,11c0,4.1,0.9,7.8,2.7,11c1.8,3.3,4.2,5.8,7.3,7.7c3.1,1.9,6.6,2.8,10.5,2.8c3.5,0,6.8-0.7,9.9-2.2
		c3.1-1.4,5.6-3.3,7.4-5.6l-5.4-6.5c-1,1.3-2.1,2.3-3.2,3.2c-1.2,0.8-2.4,1.5-3.7,1.9c-1.3,0.4-2.6,0.7-4,0.7
		c-2.3,0-4.3-0.6-6.1-1.7c-1.8-1.2-3.3-2.7-4.4-4.7c-1.1-1.9-1.6-4.1-1.6-6.6c0-2.5,0.5-4.7,1.6-6.7C74.5,105.6,75.9,104.1,77.8,103
		z"/>
	<path class="st0" d="M135.5,95.5c-3.3-1.9-6.9-2.8-11-2.8c-4.2,0-7.9,0.9-11.1,2.8c-3.3,1.9-5.8,4.4-7.7,7.7
		c-1.9,3.3-2.8,7-2.8,11.1c0,4.2,0.9,7.9,2.8,11.1c1.9,3.3,4.5,5.8,7.7,7.7c3.3,1.9,7,2.8,11.1,2.8c4.1,0,7.8-0.9,11-2.8
		c3.3-1.9,5.8-4.4,7.7-7.7c1.9-3.3,2.8-7,2.8-11.1c0-4.2-0.9-7.9-2.8-11.1C141.3,99.9,138.8,97.3,135.5,95.5z M134.7,120.9
		c-1,1.9-2.4,3.5-4.2,4.7c-1.8,1.2-3.8,1.7-6,1.7c-2.3,0-4.3-0.6-6.1-1.7c-1.8-1.2-3.2-2.7-4.2-4.7c-1-1.9-1.5-4.1-1.5-6.6
		c0-2.5,0.5-4.7,1.5-6.7c1-2,2.4-3.5,4.2-4.6c1.8-1.1,3.8-1.7,6.1-1.7c2.3,0,4.3,0.6,6,1.7c1.8,1.1,3.2,2.7,4.2,4.6
		c1,1.9,1.5,4.2,1.5,6.7C136.2,116.7,135.7,119,134.7,120.9z"/>
	<path class="st0" d="M175.3,92.7c-2,0-4,0.5-5.9,1.5c-1.9,1-3.5,2.3-4.9,4c-0.7,0.8-1.2,1.6-1.7,2.5l-0.1-7.1h-9.5v41.5h9.8v-22.1
		c0-1.5,0.2-2.8,0.7-4c0.5-1.2,1.2-2.2,2.1-3.1c0.9-0.9,1.9-1.6,3.1-2.1c1.2-0.5,2.4-0.7,3.7-0.7c0.8,0,1.7,0.1,2.5,0.3
		c0.8,0.2,1.5,0.5,2.1,0.8l2.6-10.6c-0.5-0.2-1.2-0.4-2-0.6C177,92.8,176.2,92.7,175.3,92.7z"/>
	<path class="st0" d="M216,98.5c-1.7-1.8-3.8-3.2-6.1-4.3c-2.4-1.1-4.9-1.6-7.6-1.6c-3.1,0-6,0.5-8.6,1.6c-2.6,1.1-4.8,2.6-6.7,4.6
		c-1.9,2-3.3,4.3-4.4,7c-1.1,2.7-1.6,5.6-1.6,8.9c0,4.1,0.9,7.7,2.8,10.9c1.9,3.2,4.5,5.7,7.8,7.5c3.3,1.8,7.2,2.8,11.5,2.8
		c1.9,0,3.9-0.3,5.9-0.8c2-0.5,3.9-1.2,5.7-2.2c1.8-0.9,3.4-2,4.8-3.3l-4.8-6.7c-1.9,1.6-3.7,2.8-5.3,3.4c-1.6,0.6-3.4,0.9-5.4,0.9
		c-2.8,0-5.2-0.5-7.3-1.6c-2.1-1.1-3.7-2.6-4.8-4.6c-0.8-1.3-1.2-2.8-1.5-4.5h30.6l0.1-3.4c0.1-2.9-0.4-5.7-1.3-8.2
		C219,102.4,217.7,100.3,216,98.5z M195.7,102.7c1.8-1,3.9-1.5,6.5-1.5c1.7,0,3.2,0.4,4.6,1.1c1.4,0.7,2.5,1.7,3.4,2.9
		c0.9,1.2,1.4,2.7,1.6,4.3v0.4h-21c0.2-1.1,0.5-2,0.9-2.9C192.6,105.1,193.9,103.7,195.7,102.7z"/>
</g>
</svg>
