<?xml version="1.0" encoding="utf-8"?>
<!-- Generator: Adobe Illustrator 27.9.0, SVG Export Plug-In . SVG Version: 6.00 Build 0)  -->
<svg version="1.1" id="Layer_1" xmlns="http://www.w3.org/2000/svg" xmlns:xlink="http://www.w3.org/1999/xlink" x="0px" y="0px"
	 viewBox="0 0 400 400" style="enable-background:new 0 0 400 400;" xml:space="preserve">
<style type="text/css">
	.st0{fill:none;stroke:#8FB454;stroke-width:3;}
</style>
<path class="st0" d="M277,56.6L244.8,113c-36,62.8-93.9,166.5-93.9,239c0,22,7,45.1,33.3,45.1c20.9,0,31.1-13.4,31.1-33.3
	c0-10.7-2.1-22.6-2.1-49.9c0-87.5,23.6-141.8,65.5-216.4l29-51V9.9H157.9c-10.2,0-20.9,0-31.1-1.1c-10.2-1.1-19.9-2.7-30-5.4
	l-4.3,83.8h11.8c29.5,0-1.6-30.6,55.8-30.6H277z"/>
</svg>
