<?xml version="1.0" encoding="utf-8"?>
<!-- Generator: Adobe Illustrator 27.9.0, SVG Export Plug-In . SVG Version: 6.00 Build 0)  -->
<svg version="1.1" id="Layer_1" xmlns="http://www.w3.org/2000/svg" xmlns:xlink="http://www.w3.org/1999/xlink" x="0px" y="0px"
	 viewBox="0 0 400 400" style="enable-background:new 0 0 400 400;" xml:space="preserve">
<style type="text/css">
	.st0{fill:none;stroke:#D74310;stroke-width:2;}
</style>
<path class="st0" d="M311.3,313h-9.9c-28.5,0-1.1,36.2-65.2,36.2h-114c81.1-111.4,193.5-145.4,193.5-239.7
	C315.6,39.8,263,3.1,198.4,3.1c-44.9,0-106.9,29.1-106.9,82.8c0,20.3,12.6,40.6,35.1,40.6c15.9,0,28.5-11,28.5-27.4
	c0-21.9-18.6-19.7-18.6-37.3c0-19.7,24.1-38.4,52.6-38.4c45.5,0,65.8,38.4,65.8,80.1c0,87.2-77.8,128.9-170.4,259.5v34h224.1
	L311.3,313z"/>
</svg>
