<?xml version="1.0" encoding="utf-8"?>
<!-- Generator: Adobe Illustrator 28.0.0, SVG Export Plug-In . SVG Version: 6.00 Build 0)  -->
<svg version="1.1" id="Layer_1" xmlns="http://www.w3.org/2000/svg" xmlns:xlink="http://www.w3.org/1999/xlink" x="0px" y="0px"
	 viewBox="0 0 237 151.7" style="enable-background:new 0 0 237 151.7;" xml:space="preserve">
<style type="text/css">
	.st0{fill:#FFFFFF;}
</style>
<g>
	<path class="st0" d="M53,0.8L41.4,64.2H30.3L18.6,0.8h8l9.2,55.9L45,0.8H53z"/>
	<path class="st0" d="M61.5,0.8h11.1l11.5,63.4h-8l-2-12.8H60.2l-2,12.8h-8.1L61.5,0.8z M61.4,44.1h11.5L67.1,8.5L61.4,44.1z"/>
	<path class="st0" d="M89.4,64.2V0.8h7.9v55.8h17v7.6H89.4z"/>
	<path class="st0" d="M147.9,0.8v47.8c0,2.4-0.2,4.6-0.6,6.6c-0.4,2-1.1,3.7-2.2,5.1c-1.1,1.4-2.6,2.6-4.5,3.4
		c-1.9,0.8-4.4,1.2-7.5,1.2c-3.1,0-5.5-0.4-7.4-1.2c-1.9-0.8-3.4-1.9-4.5-3.4c-1.1-1.4-1.8-3.2-2.2-5.1c-0.4-2-0.6-4.2-0.6-6.6V0.8
		h7.9v47.6c0,1.3,0.1,2.5,0.2,3.6c0.1,1.1,0.4,2,0.8,2.8c0.4,0.8,1.1,1.4,2,1.8c0.9,0.4,2.1,0.6,3.7,0.6c1.6,0,2.8-0.2,3.8-0.6
		s1.6-1,2-1.8c0.4-0.8,0.7-1.7,0.8-2.8c0.1-1.1,0.2-2.3,0.2-3.6V0.8H147.9z"/>
	<path class="st0" d="M154.9,64.2V0.8l25.5,0v7.7l-17.6,0V28h14.7v7.7h-14.7v20.9h17.6v7.6H154.9z"/>
	<path class="st0" d="M214.3,48.7c0,2.6-0.3,4.9-0.8,6.9c-0.6,2-1.4,3.7-2.6,5.1s-2.7,2.4-4.6,3.1c-1.9,0.7-4.1,1.1-6.7,1.1
		c-3,0-5.5-0.4-7.4-1.2c-1.9-0.8-3.4-1.9-4.5-3.3c-1.1-1.4-1.8-3.2-2.3-5.2s-0.6-4.3-0.6-6.9v-3.6h7.9v3.5c0,1.5,0.1,2.9,0.3,4
		c0.2,1.1,0.5,2.1,1,2.8s1.2,1.3,2.1,1.7c0.9,0.4,2,0.6,3.4,0.6c1.3,0,2.4-0.2,3.3-0.6s1.6-1,2.1-1.8c0.5-0.8,0.9-1.7,1.1-2.7
		c0.2-1,0.3-2.2,0.3-3.4v-0.5c0-1.3-0.1-2.5-0.3-3.6c-0.2-1.1-0.5-2-0.9-2.9c-0.4-0.9-1-1.6-1.7-2.4c-0.7-0.7-1.6-1.4-2.6-2l-6-3.8
		c-1.9-1.2-3.4-2.4-4.7-3.5s-2.2-2.4-2.9-3.7c-0.7-1.3-1.2-2.8-1.5-4.4c-0.3-1.6-0.4-3.5-0.4-5.5v-1c0-5.2,1.2-9.1,3.7-11.6
		c2.5-2.5,6.1-3.8,10.8-3.8c2.5,0,4.7,0.3,6.5,1c1.8,0.7,3.3,1.7,4.4,3c1.2,1.3,2,3,2.6,4.9c0.6,1.9,0.8,4.1,0.8,6.6v4.5h-7.9l0-5.3
		c0-1-0.2-2-0.4-2.9c-0.2-0.9-0.6-1.6-1.1-2.3c-0.5-0.6-1.2-1.1-2-1.5s-1.8-0.6-2.9-0.6c-1.2,0-2.2,0.2-3.1,0.6
		c-0.8,0.4-1.5,1-2,1.8c-0.5,0.8-0.9,1.6-1.1,2.6c-0.2,1-0.3,2.1-0.3,3.3l0.1,1.3c0.1,1.9,0.6,3.7,1.5,5.3c1,1.6,2.3,2.9,4.1,3.9
		l5.6,3.3c1.8,1.1,3.3,2.2,4.5,3.4c1.2,1.2,2.2,2.5,3,4c0.8,1.4,1.3,3,1.6,4.6c0.3,1.7,0.5,3.4,0.6,5.4V48.7z"/>
	<path class="st0" d="M7,98.9L7.5,151H0V87.6h10.8l9.5,42l9.6-42h10.8V151h-7.5l0.5-51.9L24,142.3h-7.3L7,98.9z"/>
	<path class="st0" d="M57,87.6h11.1L79.5,151h-8l-2-12.8H55.7l-2,12.8h-8.1L57,87.6z M56.8,130.9h11.5l-5.8-35.6L56.8,130.9z"/>
	<path class="st0" d="M113.4,112.4c0,3-0.3,5.5-1,7.5c-0.7,2-1.7,3.6-3,4.8c-1.3,1.2-2.9,2-4.7,2.5c-1.9,0.5-4,0.7-6.3,0.7h-5.5V151
		h-8V87.6h13.8c2.2,0,4.2,0.3,6,0.8c1.8,0.5,3.3,1.4,4.6,2.6s2.3,2.8,3,4.7c0.7,1.9,1,4.3,1,7.2V112.4z M105.4,102.8
		c0-2.4-0.5-4.3-1.5-5.6c-1-1.3-2.7-1.9-5.2-1.9h-5.9v25h5.4c1.3,0,2.4-0.1,3.3-0.4c0.9-0.3,1.7-0.7,2.2-1.4c0.6-0.6,1-1.4,1.2-2.4
		c0.2-1,0.4-2.2,0.4-3.7V102.8z"/>
	<path class="st0" d="M148.1,112.4c0,3-0.3,5.5-1,7.5c-0.7,2-1.7,3.6-3,4.8c-1.3,1.2-2.9,2-4.7,2.5c-1.9,0.5-4,0.7-6.3,0.7h-5.5V151
		h-8V87.6h13.8c2.2,0,4.2,0.3,6,0.8c1.8,0.5,3.3,1.4,4.6,2.6c1.3,1.2,2.3,2.8,3,4.7c0.7,1.9,1,4.3,1,7.2V112.4z M140.1,102.8
		c0-2.4-0.5-4.3-1.5-5.6c-1-1.3-2.7-1.9-5.2-1.9h-5.9v25h5.4c1.3,0,2.4-0.1,3.3-0.4c0.9-0.3,1.7-0.7,2.2-1.4c0.6-0.6,1-1.4,1.2-2.4
		c0.2-1,0.4-2.2,0.4-3.7V102.8z"/>
	<path class="st0" d="M154.3,151V87.6h8V151H154.3z"/>
	<path class="st0" d="M169.7,151V87.6h10.2l13.6,48.4V87.6h7.6l0.2,63.4h-9.7l-14.3-48.8V151H169.7z"/>
	<path class="st0" d="M222,117.8H237v16.5c0,2.1-0.2,4.2-0.6,6.3c-0.4,2.1-1.1,3.9-2.2,5.6c-1.1,1.6-2.6,3-4.5,4
		c-1.9,1-4.4,1.5-7.5,1.5c-3.1,0-5.7-0.5-7.6-1.6c-1.9-1-3.4-2.4-4.5-4.1s-1.8-3.6-2.1-5.8s-0.5-4.4-0.5-6.8v-28.4
		c0-2.4,0.2-4.6,0.6-6.9c0.4-2.2,1.1-4.2,2.1-5.9c1.1-1.7,2.5-3,4.5-4.1c1.9-1,4.5-1.5,7.6-1.5s5.6,0.5,7.6,1.6c1.9,1,3.4,2.4,4.5,4
		c1.1,1.7,1.8,3.5,2.1,5.6c0.4,2.1,0.5,4.2,0.5,6.3v2.7h-8v-2.7c0-1.2-0.1-2.5-0.2-3.6c-0.1-1.2-0.4-2.2-0.9-3.1
		c-0.5-0.9-1.2-1.7-2-2.2c-0.9-0.6-2.1-0.9-3.6-0.9s-2.7,0.3-3.6,0.9c-0.9,0.6-1.6,1.3-2.1,2.3c-0.5,1-0.8,2.1-0.9,3.4
		c-0.1,1.3-0.2,2.7-0.2,4.1v28.3c0,1.4,0.1,2.7,0.2,4c0.1,1.3,0.4,2.4,0.9,3.4c0.5,1,1.1,1.8,2,2.4c0.9,0.6,2.1,0.9,3.7,0.9
		c1.4,0,2.6-0.3,3.5-0.8c0.9-0.5,1.6-1.2,2.1-2.1c0.5-0.9,0.8-2,1-3.1c0.2-1.2,0.2-2.5,0.2-3.8v-8.8H222V117.8z"/>
</g>
</svg>
